<?xml version="1.0" encoding="UTF-8" standalone="no"?>
<svg
   xmlns:dc="http://purl.org/dc/elements/1.1/"
   xmlns:cc="http://creativecommons.org/ns#"
   xmlns:rdf="http://www.w3.org/1999/02/22-rdf-syntax-ns#"
   xmlns:svg="http://www.w3.org/2000/svg"
   xmlns="http://www.w3.org/2000/svg"
   id="svg8"
   version="1.1"
   viewBox="0 0 23.812501 23.812501"
   height="90"
   width="90">
  <defs
     id="defs2" />
  <metadata
     id="metadata5">
    <rdf:RDF>
      <cc:Work
         rdf:about="">
        <dc:format>image/svg+xml</dc:format>
        <dc:type
           rdf:resource="http://purl.org/dc/dcmitype/StillImage" />
        <dc:title></dc:title>
      </cc:Work>
    </rdf:RDF>
  </metadata>
  <g
     transform="translate(0,-273.18749)"
     style="display:inline"
     id="layer1">
    <g
       id="flowRoot3718"
       style="font-style:normal;font-weight:normal;font-size:40px;line-height:1.25;font-family:sans-serif;letter-spacing:0px;word-spacing:0px;fill:#000000;fill-opacity:1;stroke:none"
       transform="matrix(0.26458333,0,0,0.26458333,-43.744821,204.90012)"
       aria-label="RUDY">
      <path
         id="path5374"
         style="font-style:normal;font-variant:normal;font-weight:bold;font-stretch:normal;line-height:1.25;font-family:antonio;-inkscape-font-specification:'antonio Bold';letter-spacing:-2.03999996px"
         d="m 180.91992,285.93754 -1.67969,-0.0781 v 16.23046 h -5.23437 v -34.375 h 8.65234 q 2.69532,0 4.02344,1.09375 1.32813,1.07422 1.73828,3.02735 0.42969,1.93359 0.42969,5.07812 0,3.125 -0.66406,4.76563 -0.66407,1.64062 -2.46094,2.20703 1.77734,0.3125 2.48047,2.40234 0.70312,2.08985 0.70312,8.71094 0,6.60156 0.19532,7.08984 h -5.23438 q -0.19531,-0.39062 -0.19531,-12.32421 0,-2.28516 -0.54688,-3.02735 -0.54687,-0.76172 -2.20703,-0.80078 z m -1.66015,-4.14062 h 2.08984 q 0.99609,0 1.46484,-0.44922 0.48828,-0.44922 0.66407,-1.54297 0.19531,-1.09375 0.19531,-3.33985 v -0.21484 q 0,-2.79297 -0.46875,-3.65234 -0.46875,-0.85938 -2.16797,-0.85938 h -1.77734 z" />
      <path
         id="path5376"
         style="font-style:normal;font-variant:normal;font-weight:bold;font-stretch:normal;line-height:1.25;font-family:antonio;-inkscape-font-specification:'antonio Bold';letter-spacing:-2.03999996px"
         d="m 206.69242,293.26176 q 0,4.74609 -1.79687,6.99219 -1.79688,2.22656 -5.78125,2.22656 -3.96485,0 -5.78125,-2.24609 -1.79688,-2.2461 -1.79688,-6.97266 v -25.56641 h 5.23438 v 25.46875 q 0,2.71485 0.2539,3.30078 0.25391,0.58594 0.60547,1.07422 0.37109,0.46875 1.50391,0.46875 1.13281,0 1.62109,-0.66406 0.48828,-0.66406 0.58594,-1.64062 0.11719,-0.9961 0.11719,-2.53907 v -25.46875 h 5.23437 z" />
      <path
         id="path5378"
         style="font-style:normal;font-variant:normal;font-weight:bold;font-stretch:normal;line-height:1.25;font-family:antonio;-inkscape-font-specification:'antonio Bold';letter-spacing:-2.03999996px"
         d="m 214.8282,298.02738 h 1.71875 q 1.44531,0 2.08985,-0.9375 0.66406,-0.9375 0.66406,-3.4375 l -0.0195,-16.97265 q 0,-2.67578 -0.66407,-3.8086 -0.64453,-1.13281 -2.24609,-1.13281 h -1.54297 z m -5.23437,4.0625 v -34.375 h 7.71484 q 3.78906,0 5.48828,2.2461 1.71875,2.22656 1.71875,6.58203 l 0.0195,15.50781 q 0,5.19531 -1.71875,7.61719 -1.71875,2.42187 -5.68359,2.42187 z" />
      <path
         id="path5380"
         style="font-style:normal;font-variant:normal;font-weight:bold;font-stretch:normal;line-height:1.25;font-family:antonio;-inkscape-font-specification:'antonio Bold';letter-spacing:-2.03999996px"
         d="m 230.38586,302.08988 v -13.73046 l -5.76172,-20.64454 h 5 l 3.39844,12.85157 h 0.0781 l 3.02735,-12.85157 h 4.98047 l -5.48828,20.64454 v 13.73046 z" />
    </g>
    <g
       id="flowRoot3734"
       style="font-style:normal;font-weight:normal;font-size:40px;line-height:1.25;font-family:sans-serif;letter-spacing:0px;word-spacing:0px;fill:#000000;fill-opacity:1;stroke:none"
       transform="matrix(0.26458333,0,0,0.26458333,-43.611187,214.65546)"
       aria-label="VALLE">
      <path
         id="path5383"
         style="font-style:normal;font-variant:normal;font-weight:bold;font-stretch:normal;font-family:antonio;-inkscape-font-specification:'antonio Bold'"
         d="m 177.85352,302.08988 -5.33204,-34.375 h 4.98047 l 2.2461,15.52735 1.38672,10.9375 h 0.13671 l 1.19141,-10.9375 1.875,-15.52735 h 4.88281 l -4.90234,34.375 z" />
      <path
         id="path5385"
         style="font-style:normal;font-variant:normal;font-weight:bold;font-stretch:normal;font-family:antonio;-inkscape-font-specification:'antonio Bold'"
         d="m 201.34961,291.75785 -2.30469,-17.26562 h -0.0781 l -2.10938,17.26562 z m -10.78125,10.33203 4.90234,-34.375 h 6.91407 l 5.21484,34.375 h -4.88281 l -0.82032,-6.13281 h -5.54687 l -0.74219,6.13281 z" />
      <path
         id="path5387"
         style="font-style:normal;font-variant:normal;font-weight:bold;font-stretch:normal;font-family:antonio;-inkscape-font-specification:'antonio Bold'"
         d="m 211.19336,302.08988 v -34.375 h 5.23437 v 29.92188 h 6.6211 v 4.45312 z" />
      <path
         id="path5389"
         style="font-style:normal;font-variant:normal;font-weight:bold;font-stretch:normal;font-family:antonio;-inkscape-font-specification:'antonio Bold'"
         d="m 226.03711,302.08988 v -34.375 h 5.23437 v 29.92188 h 6.6211 v 4.45312 z" />
      <path
         id="path5391"
         style="font-style:normal;font-variant:normal;font-weight:bold;font-stretch:normal;font-family:antonio;-inkscape-font-specification:'antonio Bold'"
         d="m 240.88086,302.08988 v -34.375 h 11.52344 v 4.51172 h -6.28907 v 10 h 5.97657 v 4.41407 h -5.97657 v 10.9375 h 6.52344 v 4.51171 z" />
    </g>
    <rect
       style="stroke-width:0.15811877"
       y="275.12192"
       x="0.62192154"
       height="20.579754"
       width="0.66817379"
       id="rect3736" />
  </g>
</svg>
