<?xml version="1.0" encoding="utf-8"?>
<!-- Generator: Adobe Illustrator 22.0.1, SVG Export Plug-In . SVG Version: 6.00 Build 0)  -->
<svg version="1.1" xmlns="http://www.w3.org/2000/svg" xmlns:xlink="http://www.w3.org/1999/xlink" x="0px" y="0px"
	 viewBox="0 0 500 500" style="enable-background:new 0 0 500 500;" xml:space="preserve">
<style type="text/css">
	.st0{fill:#E8E8E8;}
	.st1{fill:#C3C6CB;}
	.st2{fill:#DBDCDD;}
	.st3{fill:#AEB1B5;}
	.st4{fill:#FFC000;}
	.st5{fill:#FFAB03;}
	.st6{fill:#FFD345;}
	.st7{fill:#6A452B;}
	.st8{fill:#7F5639;}
	.st9{fill:#543622;}
	.st10{fill:#C8281C;}
	.st11{fill:#AF1B17;}
	.st12{fill:#EA332F;}
</style>
<g id="BACKGROUND">
</g>
<g id="OBJECTS">
	<g>
		<ellipse class="st0" cx="250" cy="356.6" rx="178.4" ry="14.3"/>
		<ellipse class="st0" cx="273.1" cy="403.1" rx="13.4" ry="1.2"/>
		<path class="st0" d="M293.8,385c0.3,1.1-5.9,4-13.9,6.5c-8,2.5-14.8,3.7-15.1,2.6c-0.3-1.1,5.9-4,13.9-6.5
			C286.7,385.1,293.5,383.9,293.8,385z"/>
		<path class="st0" d="M250.4,396.8c-0.3,2-6.2,2.7-13.1,1.5c-6.9-1.2-12.2-3.7-11.9-5.7c0.3-2,6.2-2.7,13.1-1.5
			C245.4,392.3,250.7,394.8,250.4,396.8z"/>
		<ellipse transform="matrix(0.866 -0.5 0.5 0.866 -171.0663 160.9657)" class="st0" cx="214.8" cy="399.7" rx="10.6" ry="2.1"/>
		<path class="st0" d="M205.9,392.7c0,0.9-6,2.7-13.4,3.9c-7.4,1.3-13.4,1.5-13.4,0.6c0-0.9,6-2.7,13.4-3.9
			C199.9,392.1,205.9,391.8,205.9,392.7z"/>
		
			<ellipse transform="matrix(7.703198e-02 -0.997 0.997 7.703198e-02 -78.2076 683.2192)" class="st0" cx="329.9" cy="383.9" rx="5.3" ry="41.3"/>
		<ellipse class="st0" cx="266.7" cy="375.9" rx="58.6" ry="5.3"/>
		
			<ellipse transform="matrix(6.594793e-02 -0.9978 0.9978 6.594793e-02 -227.0631 515.5377)" class="st0" cx="161.8" cy="379.1" rx="5.3" ry="58.8"/>
		<g>
			<path class="st1" d="M208.4,155.5l-48.2,22.1l-1.7,10.3c0.1,0.2,0.3,0.3,0.5,0.3l5.7,2.6c0.4,0.2,0.4,0.7,0.1,0.9l-2.4,1.9l6,2.6
				c0.4,0.2,0.5,0.7,0.1,1l-2.4,1.9l6,2.6c0.4,0.2,0.5,0.7,0.1,1l-2.4,1.9l6,2.6c0.4,0.2,0.5,0.7,0.1,1l-2.4,1.9l6,2.6
				c0.4,0.2,0.5,0.7,0.1,1l-2.4,1.9l6,2.6c0.4,0.2,0.5,0.7,0.1,1l-2.4,1.9l6,2.6c0.4,0.2,0.5,0.7,0.1,1l-2.4,1.9l6,2.6
				c0.4,0.2,0.5,0.7,0.1,1l-2.4,1.9l6,2.6c0.4,0.2,0.5,0.7,0.1,1l-2.4,1.9l6,2.6c0.4,0.2,0.5,0.7,0.1,1l-2.4,1.9l6,2.6
				c0.4,0.2,0.5,0.7,0.1,1l-2.4,1.9l6,2.6c0.4,0.2,0.5,0.7,0.1,1l-2.4,1.9l6,2.6c0.4,0.2,0.5,0.7,0.1,1l-2.4,1.9l6,2.6
				c0.4,0.2,0.5,0.7,0.1,1l-2.4,1.9l6,2.6c0.4,0.2,0.5,0.7,0.1,1l-2.4,1.9l6,2.6c0.4,0.2,0.5,0.7,0.1,1l-2.4,1.9l6,2.6
				c0.4,0.2,0.5,0.7,0.1,1l-2.4,1.9l6,2.6c0.4,0.2,0.5,0.7,0.1,1l-2.4,1.9l6,2.6c0.4,0.2,0.5,0.7,0.1,1l-2.4,1.9l6,2.6
				c0.4,0.2,0.5,0.7,0.1,1l-2.4,1.9l6,2.6c0.4,0.2,0.5,0.7,0.1,1l-2.4,1.9l6,2.6c0.4,0.2,0.5,0.7,0.1,1l-2.4,1.9l6,2.6
				c0.4,0.2,0.5,0.7,0.1,1l-2.4,1.9l6,2.6c0.4,0.2,0.5,0.7,0.1,1l-2.4,1.9l6,2.6c0.4,0.2,0.5,0.7,0.1,1l-2.4,1.9l6,2.6
				c0.4,0.2,0.5,0.7,0.1,1l-2.4,1.9l6,2.6c0.4,0.2,0.5,0.7,0.1,1l-2.4,1.9l6,2.6c0.4,0.2,0.5,0.7,0.1,1l-2.4,1.9l6,2.6
				c0.4,0.2,0.5,0.7,0.1,1l-2.4,1.9l6,2.6c0.4,0.2,0.5,0.7,0.1,1l-2.4,1.9l1,1.4l15.9-7.3c3.2-1.5,4.6-5.2,3.1-8.4L208.4,155.5z
				 M282.4,335.3c1.6-0.7,3.5,0,4.2,1.6s0,3.5-1.6,4.2c-1.6,0.7-3.5,0-4.2-1.6C280.1,337.9,280.8,336,282.4,335.3z"/>
			<g>
				<g>
					<path class="st2" d="M292.3,338c1.5,3.2,0.1,7-3.1,8.4l-3.7,1.7c3.2-1.5,4.6-5.2,3.1-8.4l-83.8-182.5l3.7-1.7L292.3,338z"/>
				</g>
			</g>
			<g>
				<g>
					<path class="st3" d="M282.4,349.5l-9.1,4.2l-1-1.4l2.4-1.9c0.3-0.3,0.3-0.8-0.1-1l-6-2.6l2.4-1.9c0.3-0.3,0.3-0.8-0.1-1l-6-2.6
						l2.4-1.9c0.3-0.3,0.3-0.8-0.1-1l-6-2.6l2.4-1.9c0.3-0.3,0.3-0.8-0.1-1l-6-2.6l2.4-1.9c0.3-0.3,0.3-0.8-0.1-1l-6-2.6l2.4-1.9
						c0.3-0.3,0.3-0.8-0.1-1l-6-2.6l2.4-1.9c0.3-0.3,0.3-0.8-0.1-1l-6-2.6l2.4-1.9c0.3-0.3,0.3-0.8-0.1-1l-6-2.6l2.4-1.9
						c0.3-0.3,0.3-0.8-0.1-1l-6-2.6l2.4-1.9c0.3-0.3,0.3-0.8-0.1-1l-6-2.6l2.4-1.9c0.3-0.3,0.3-0.8-0.1-1l-6-2.6l2.4-1.9
						c0.3-0.3,0.3-0.8-0.1-1l-6-2.6l2.4-1.9c0.3-0.3,0.3-0.8-0.1-1l-6-2.6l2.4-1.9c0.3-0.3,0.3-0.8-0.1-1l-6-2.6l2.4-1.9
						c0.3-0.3,0.3-0.8-0.1-1l-6-2.6l2.4-1.9c0.3-0.3,0.3-0.8-0.1-1l-6-2.6l2.4-1.9c0.3-0.3,0.3-0.8-0.1-1l-6-2.6l2.4-1.9
						c0.3-0.3,0.3-0.8-0.1-1l-6-2.6l2.4-1.9c0.3-0.3,0.3-0.8-0.1-1l-6-2.6l2.4-1.9c0.3-0.3,0.3-0.8-0.1-1l-6-2.6l2.4-1.9
						c0.3-0.3,0.3-0.8-0.1-1l-6-2.6l2.4-1.9c0.3-0.3,0.3-0.8-0.1-1l-6-2.6l2.4-1.9c0.3-0.3,0.3-0.8-0.1-1l-6-2.6l2.4-1.9
						c0.3-0.3,0.3-0.8-0.1-1l-6-2.6l2.4-1.9c0.3-0.3,0.3-0.8-0.1-1l-6-2.6l2.4-1.9c0.3-0.3,0.3-0.8-0.1-1l-6-2.6l2.4-1.9
						c0.3-0.3,0.3-0.8-0.1-1l-6-2.6l2.4-1.9c0.3-0.3,0.3-0.8-0.1-1l-6-2.6l2.4-1.9c0.3-0.3,0.3-0.8-0.1-1l-6-2.6l2.4-1.9
						c0.3-0.3,0.3-0.8-0.1-0.9l-5.7-2.6c-0.2,0-0.4-0.1-0.5-0.3l1.7-10.3l9.1-4.2L282.4,349.5z"/>
				</g>
			</g>
			<path class="st3" d="M160.3,177.6l48.2-22.1l5.5,11.9c-0.5,0.4-1.1,0.8-1.8,1L159,185.1L160.3,177.6z"/>
			<path class="st4" d="M174.9,110.2L130.1,123c-2.8,0.8-4.2,3.9-3,6.5l22.5,48.9c1.1,2.5,4,3.7,6.6,2.9l54.1-17
				c3.1-1,4.7-4.5,3.3-7.5l-27.1-59.1c-1.6-3.4-5.7-4.8-9-2.8c-2.9,1.7-3.8,5.4-2.5,8.4l1.5,3.3
				C177.2,108.1,176.4,109.8,174.9,110.2z M147.2,130.8l32.2-9.2c2-0.6,4.2,0.4,5.1,2.3l6.9,15.1c1.1,2.4-0.2,5.1-2.7,5.9l-32.1,9.5
				c-2,0.6-4.2-0.4-5.1-2.3l-7-15.3C143.4,134.3,144.7,131.5,147.2,130.8z"/>
			<g>
				<g>
					<g>
						<path class="st5" d="M191.4,139l2.2,4.7c1.1,2.4-0.2,5.1-2.7,5.9l-32.1,9.5c-2,0.6-4.2-0.4-5.1-2.3l-2.2-4.7
							c0.9,1.9,3.1,2.9,5.1,2.3l32.1-9.5C191.2,144.1,192.5,141.3,191.4,139z"/>
					</g>
				</g>
			</g>
			<g>
				<g>
					<g>
						<path class="st5" d="M176.6,106.7l-1.5-3.3c-1.4-3-0.4-6.7,2.5-8.4c3.3-1.9,7.4-0.5,9,2.8l0.1,0.3c-0.4,0.1-0.8,0.3-1.2,0.5
							c-2.9,1.7-3.8,5.4-2.5,8.4l1.5,3.3c0.7,1.4-0.1,3.1-1.6,3.5l-44.8,12.8c-2.8,0.8-4.2,3.9-3,6.5l22,47.9l-0.9,0.3
							c-2.6,0.8-5.4-0.4-6.6-2.9l-22.5-48.9c-1.2-2.6,0.2-5.7,3-6.5l44.8-12.8C176.4,109.8,177.2,108.1,176.6,106.7z"/>
					</g>
				</g>
			</g>
			<g>
				<g>
					<g>
						<path class="st6" d="M144.5,136.7l-0.9-2c-1.1-2.4,0.2-5.2,2.7-5.9l32.2-9.2c2-0.6,4.2,0.4,5.1,2.3l0.9,2
							c-0.9-1.9-3-2.9-5.1-2.3l-32.2,9.2C144.7,131.5,143.4,134.3,144.5,136.7z"/>
					</g>
					<g>
						<path class="st6" d="M155.3,179.3l54.1-17c3.1-1,4.7-4.5,3.3-7.5l0.9,2c1.4,3-0.2,6.5-3.3,7.5l-54.1,17
							c-2.6,0.8-5.4-0.4-6.6-2.9l-0.9-2C149.9,178.9,152.7,180.1,155.3,179.3z"/>
					</g>
				</g>
			</g>
			<path class="st7" d="M186.5,97.8l27.1,59.1c1.4,3-0.2,6.5-3.3,7.5l-6.4,2L191.4,139l-6.9-15.1l-7.9-17.2l-1.5-3.3
				c-1.4-3-0.4-6.7,2.5-8.4C180.8,93,184.9,94.4,186.5,97.8z"/>
			<path class="st8" d="M210,164.4c2.2-1.4,3.1-4.3,2-6.8l-27.1-59.1c-1.3-2.9-4.6-4.3-7.6-3.4c0.1,0,0.1-0.1,0.2-0.2
				c3.3-1.9,7.4-0.5,9,2.8l27.1,59.1c1.4,3-0.2,6.5-3.3,7.5L210,164.4z"/>
			<path class="st9" d="M181.5,94.1c-2.5,1.8-3.4,5.2-2.1,8.1l1.5,3.3l7.9,17.2l6.9,15.1l12.4,27l-4.3,1.4L191.4,139l-6.9-15.1
				l-7.9-17.2l-1.5-3.3c-1.4-3-0.4-6.7,2.5-8.4C178.8,94.2,180.2,94,181.5,94.1z"/>
			<g>
				
					<ellipse transform="matrix(0.8751 -0.484 0.484 0.8751 -60.1649 104.9049)" class="st5" cx="173.1" cy="169" rx="3.2" ry="3.2"/>
				<path class="st1" d="M171.3,166.2c-1.4,0.7-2.1,2.4-1.4,3.8s2.4,2.1,3.8,1.4s2.1-2.4,1.4-3.8S172.8,165.5,171.3,166.2z"/>
				<path class="st2" d="M173.7,166.2c-0.7-0.2-1.4-0.2-2,0.1c-1.4,0.7-2.1,2.4-1.4,3.8c0.3,0.7,0.8,1.2,1.5,1.4
					c-0.8-0.2-1.4-0.8-1.8-1.5c-0.7-1.4,0-3.2,1.4-3.8C172.1,165.8,173,165.8,173.7,166.2z"/>
				<path class="st3" d="M172.5,171c1.4-0.7,2.1-2.4,1.4-3.8c-0.2-0.5-0.6-0.9-1-1.2c0.9,0.1,1.8,0.7,2.2,1.6c0.7,1.4,0,3.2-1.4,3.8
					c-0.9,0.4-2,0.3-2.8-0.2C171.5,171.3,172,171.2,172.5,171z"/>
			</g>
			<g>
				<path class="st5" d="M187.9,160.6c-1.6,0.7-2.3,2.6-1.6,4.3c0.7,1.6,2.6,2.3,4.3,1.6c1.6-0.7,2.3-2.6,1.6-4.3
					C191.4,160.6,189.5,159.9,187.9,160.6z"/>
				<path class="st1" d="M187.4,160.7c-1.4,0.7-2.1,2.4-1.4,3.8s2.4,2.1,3.8,1.4c1.4-0.7,2.1-2.4,1.4-3.8
					C190.6,160.7,188.9,160,187.4,160.7z"/>
				<path class="st2" d="M189.8,160.7c-0.7-0.2-1.4-0.2-2,0.1c-1.4,0.7-2.1,2.4-1.4,3.8c0.3,0.7,0.8,1.2,1.5,1.4
					c-0.8-0.2-1.4-0.8-1.8-1.5c-0.7-1.4,0-3.2,1.4-3.8C188.2,160.3,189.1,160.4,189.8,160.7z"/>
				<path class="st3" d="M188.6,165.5c1.4-0.7,2.1-2.4,1.4-3.8c-0.2-0.5-0.6-0.9-1-1.2c0.9,0.1,1.8,0.7,2.2,1.6
					c0.7,1.4,0,3.2-1.4,3.8c-0.9,0.4-2,0.3-2.8-0.2C187.6,165.8,188.1,165.7,188.6,165.5z"/>
			</g>
			<g>
				<path class="st3" d="M226.9,286.6l3.4,1.5c-0.3-1.2-0.5-2.5-0.8-3.7c0,0.1-0.1,0.2-0.2,0.3L226.9,286.6z"/>
				<path class="st3" d="M231,291.8l-0.3,0.3l0.4,0.2C231,292.1,231,292,231,291.8z"/>
				<path class="st3" d="M219.1,203.1c0.1-0.3,0.3-0.5,0.4-0.8c0.6-1,1.5-1.8,2.6-2.5c0.3-0.2,0.6-0.3,0.8-0.5
					c0.6-0.3,1.2-0.6,1.9-0.9c0.3-0.1,0.7-0.2,1-0.4c0.6-0.2,1.3-0.4,2-0.5l-5.6-12.3c-8.4-0.7-15.8-0.4-16.6-0.4c0,0,0,0,0,0
					c0,0,0,0,0,0l-15.2,0.3c-0.3,0-0.5,0.1-0.7,0.3c-0.2,0.2-0.2,0.4-0.2,0.7l0.2,1.5c-2.5,1.4-5.4,1.8-8.2,1.1l-0.1-1
					c-0.1-0.8-0.9-1.4-1.7-1.3l-11.3,1.5l0.3,2.4l1.3,10.3l2.5,1.1c0.4,0.2,0.5,0.7,0.1,1l-2.1,1.7l0,0.3l5.7,2.5
					c0.4,0.2,0.5,0.7,0.1,1l-2.4,1.9l4.7,2l4.1-0.5c0.8-0.1,1.4-0.9,1.3-1.7l-0.1-1l0,0c2.5-1.4,5.4-1.8,8.2-1.1l0,0l0,0.4
					c0,0.1,0,0.3,0.1,0.4c0,0.1,0.1,0.1,0.1,0.2c0,0,0,0.1,0.1,0.1c0,0,0,0.1,0,0.1c0.4,0.6,1,1,1.7,1.1c0.1,0,0.3,0,0.4,0l7.8-1
					l0.1,0.9l0.2,1.5l-0.9,0.1c-0.9,0.1-1.6,1-1.5,1.9l0.4,3c0.1,0.9,1,1.6,1.9,1.5l0.9-0.1l0.9,8c0.7,6.2,1.9,12.3,3.4,18.3
					c0.5,2,1,4,1.6,6c0.7,2.4,1.3,5,1.7,7.7c0.2,0.9,0.3,1.8,0.4,2.7c0,0.1,0,0.2,0,0.3l2.4,1c0.4,0.2,0.5,0.7,0.1,1l-2.2,1.8
					c0,0.1,0,0.1,0,0.2l5.8,2.5c0.4,0.2,0.5,0.7,0.1,1l-2.4,1.9l6,2.6c0.4,0.2,0.5,0.7,0.1,1l-2.4,1.9l6,2.6c0.4,0.2,0.5,0.7,0.1,1
					l-2.4,1.9l6,2.6c0.1,0,0.2,0.1,0.2,0.2c-0.9-3.9-2-7.7-3.3-11.4c-1.2-3.5-2.2-7.4-2.8-11.6c-0.1-0.6-0.2-1.2-0.3-1.8
					c-0.4-2.8-0.6-5.5-0.6-8.1c0-0.9,0-1.7,0-2.5c0-1,0-2.1,0-3.1c0-1,0-2.1,0-3.1c0-3.2-0.2-6.4-0.4-9.6c-0.2-3-0.5-6-1-9l-1.2-7.9
					l0.8-0.1c0.9-0.1,1.6-1,1.5-1.9l-0.2-1.5v0c0,0,0,0,0,0l-0.2-1.5c-0.1-0.9-1-1.6-1.9-1.5l-0.9,0.1l-0.2-1.5h0l-0.1-0.9
					c-0.1-0.7-0.1-1.4,0-2C218.7,204.3,218.8,203.7,219.1,203.1z"/>
			</g>
		</g>
		<g>
			
				<rect x="186.8" y="257.4" transform="matrix(0.1697 -0.9855 0.9855 0.1697 -41.3241 484.1282)" class="st1" width="159.8" height="18.3"/>
			
				<rect x="179" y="264" transform="matrix(0.1697 -0.9855 0.9855 0.1697 -46.452 475.3661)" class="st2" width="159.8" height="2.5"/>
			
				<rect x="193.9" y="265.9" transform="matrix(0.1697 -0.9855 0.9855 0.1697 -36.5908 492.2143)" class="st3" width="159.8" height="3.8"/>
			<path class="st4" d="M319.8,213.3l-33.7-5.8l-14.9-21.2l51.8,8.9c1.5,0.3,2.6,1.7,2.3,3.3l-2.1,12.5
				C322.8,212.5,321.4,213.5,319.8,213.3z"/>
			<path class="st6" d="M320.1,211.8l-33.7-5.8l-13.8-19.5l-1.4-0.2l14.9,21.2l33.7,5.8c1.5,0.3,3-0.8,3.3-2.3l0.2-1.4
				C323.1,211.1,321.6,212.1,320.1,211.8z"/>
			<path class="st5" d="M273.7,189.8l45.7,7.9c1.5,0.3,2.6,1.7,2.3,3.3l-2.1,12.3l0.2,0c1.5,0.3,3-0.8,3.3-2.3l2.1-12.5
				c0.3-1.5-0.8-3-2.3-3.3l-51.8-8.9L273.7,189.8z"/>
			<g>
				<path class="st5" d="M285.9,198.3c1.1,0.2,1.8,1.2,1.7,2.3c-0.2,1.1-1.2,1.8-2.3,1.7c-1.1-0.2-1.8-1.2-1.7-2.3
					C283.8,198.8,284.8,198.1,285.9,198.3z"/>
				<path class="st1" d="M286.2,198.2c1,0.2,1.7,1.1,1.5,2.1c-0.2,1-1.1,1.7-2.1,1.5c-1-0.2-1.7-1.1-1.5-2.1
					C284.3,198.7,285.2,198.1,286.2,198.2z"/>
				<path class="st2" d="M284.8,198.6c0.4-0.2,0.8-0.3,1.3-0.3c1,0.2,1.7,1.1,1.5,2.1c-0.1,0.5-0.3,0.8-0.7,1.1
					c0.4-0.3,0.7-0.7,0.8-1.2c0.2-1-0.5-1.9-1.5-2.1C285.7,198.1,285.2,198.3,284.8,198.6z"/>
				<path class="st3" d="M286.3,201.4c-1-0.2-1.7-1.1-1.5-2.1c0.1-0.3,0.2-0.7,0.4-0.9c-0.6,0.2-1,0.7-1.1,1.4
					c-0.2,1,0.5,1.9,1.5,2.1c0.6,0.1,1.3-0.1,1.7-0.6C287,201.4,286.6,201.4,286.3,201.4z"/>
			</g>
			<g>
				<path class="st5" d="M281.7,191.2c1.1,0.2,1.8,1.2,1.7,2.3c-0.2,1.1-1.2,1.8-2.3,1.7c-1.1-0.2-1.8-1.2-1.7-2.3
					C279.5,191.7,280.6,191,281.7,191.2z"/>
				<path class="st1" d="M282,191.1c1,0.2,1.7,1.1,1.5,2.1c-0.2,1-1.1,1.7-2.1,1.5c-1-0.2-1.7-1.1-1.5-2.1
					C280.1,191.6,281,191,282,191.1z"/>
				<path class="st2" d="M280.6,191.5c0.4-0.2,0.8-0.3,1.3-0.3c1,0.2,1.7,1.1,1.5,2.1c-0.1,0.5-0.3,0.8-0.7,1.1
					c0.4-0.3,0.7-0.7,0.8-1.2c0.2-1-0.5-1.9-1.5-2.1C281.5,191,280.9,191.2,280.6,191.5z"/>
				<path class="st3" d="M282,194.2c-1-0.2-1.7-1.1-1.5-2.1c0.1-0.3,0.2-0.7,0.4-0.9c-0.6,0.2-1,0.7-1.1,1.4c-0.2,1,0.5,1.9,1.5,2.1
					c0.6,0.1,1.3-0.1,1.7-0.6C282.7,194.3,282.4,194.3,282,194.2z"/>
			</g>
			<g>
				
					<rect x="247.4" y="336.4" transform="matrix(0.1697 -0.9855 0.9855 0.1697 -128.7328 526.4227)" class="st3" width="1.4" height="6.4"/>
				
					<rect x="246.8" y="334.7" transform="matrix(0.1697 -0.9855 0.9855 0.1697 -126.4862 523.5497)" class="st3" width="1.4" height="4.4"/>
				
					<rect x="247.2" y="332.1" transform="matrix(0.1697 -0.9855 0.9855 0.1697 -123.5606 521.8372)" class="st3" width="1.4" height="4.4"/>
				
					<rect x="247.7" y="329.5" transform="matrix(0.1697 -0.9855 0.9855 0.1697 -120.6327 520.1293)" class="st3" width="1.4" height="4.4"/>
				
					<rect x="249.2" y="326" transform="matrix(0.1697 -0.9855 0.9855 0.1697 -117.0329 519.5681)" class="st3" width="1.4" height="6.4"/>
				
					<rect x="248.6" y="324.3" transform="matrix(0.1697 -0.9855 0.9855 0.1697 -114.7816 516.7043)" class="st3" width="1.4" height="4.4"/>
				
					<rect x="249" y="321.7" transform="matrix(0.1697 -0.9855 0.9855 0.1697 -111.8584 514.9872)" class="st3" width="1.4" height="4.4"/>
				
					<rect x="249.5" y="319.1" transform="matrix(0.1697 -0.9855 0.9855 0.1697 -108.9328 513.2748)" class="st3" width="1.4" height="4.4"/>
				
					<rect x="250.9" y="315.7" transform="matrix(0.1697 -0.9855 0.9855 0.1697 -105.3307 512.7181)" class="st3" width="1.4" height="6.4"/>
				
					<rect x="250.4" y="313.9" transform="matrix(0.1697 -0.9855 0.9855 0.1697 -103.0793 509.8542)" class="st3" width="1.4" height="4.4"/>
				
					<rect x="250.8" y="311.3" transform="matrix(0.1697 -0.9855 0.9855 0.1697 -100.1537 508.1417)" class="st3" width="1.4" height="4.4"/>
				
					<rect x="251.3" y="308.7" transform="matrix(0.1697 -0.9855 0.9855 0.1697 -97.2306 506.4248)" class="st3" width="1.4" height="4.4"/>
				
					<rect x="252.7" y="305.3" transform="matrix(0.1697 -0.9855 0.9855 0.1697 -93.6275 505.8698)" class="st3" width="1.4" height="6.4"/>
				
					<rect x="252.1" y="303.6" transform="matrix(0.1697 -0.9855 0.9855 0.1697 -91.3785 503.0015)" class="st3" width="1.4" height="4.4"/>
				
					<rect x="252.6" y="301" transform="matrix(0.1697 -0.9855 0.9855 0.1697 -88.4524 501.29)" class="st3" width="1.4" height="4.4"/>
				
					<rect x="253" y="298.4" transform="matrix(0.1697 -0.9855 0.9855 0.1697 -85.5259 499.5791)" class="st3" width="1.4" height="4.4"/>
				
					<rect x="254.5" y="294.9" transform="matrix(0.1697 -0.9855 0.9855 0.1697 -81.9237 499.0224)" class="st3" width="1.4" height="6.4"/>
				
					<rect x="253.9" y="293.2" transform="matrix(0.1697 -0.9855 0.9855 0.1697 -79.6772 496.1499)" class="st3" width="1.4" height="4.4"/>
				
					<rect x="254.4" y="290.6" transform="matrix(0.1697 -0.9855 0.9855 0.1697 -76.7517 494.4374)" class="st3" width="1.4" height="4.4"/>
				
					<rect x="254.8" y="288" transform="matrix(0.1697 -0.9855 0.9855 0.1697 -73.8236 492.729)" class="st3" width="1.4" height="4.4"/>
				
					<rect x="256.3" y="284.5" transform="matrix(0.1697 -0.9855 0.9855 0.1697 -70.2215 492.1723)" class="st3" width="1.4" height="6.4"/>
				
					<rect x="255.7" y="282.8" transform="matrix(0.1697 -0.9855 0.9855 0.1697 -67.9724 489.304)" class="st3" width="1.4" height="4.4"/>
				
					<rect x="256.2" y="280.2" transform="matrix(0.1697 -0.9855 0.9855 0.1697 -65.0494 487.5875)" class="st3" width="1.4" height="4.4"/>
				
					<rect x="256.6" y="277.6" transform="matrix(0.1697 -0.9855 0.9855 0.1697 -62.1238 485.8749)" class="st3" width="1.4" height="4.4"/>
				
					<rect x="258.1" y="274.2" transform="matrix(0.1697 -0.9855 0.9855 0.1697 -58.5217 485.3183)" class="st3" width="1.4" height="6.4"/>
				
					<rect x="257.5" y="272.4" transform="matrix(0.1697 -0.9855 0.9855 0.1697 -56.2701 482.4539)" class="st3" width="1.4" height="4.4"/>
				
					<rect x="257.9" y="269.9" transform="matrix(0.1697 -0.9855 0.9855 0.1697 -53.3446 480.7414)" class="st3" width="1.4" height="4.4"/>
				
					<rect x="258.4" y="267.3" transform="matrix(0.1697 -0.9855 0.9855 0.1697 -50.4226 479.0235)" class="st3" width="1.4" height="4.4"/>
				
					<rect x="259.9" y="263.8" transform="matrix(0.1697 -0.9855 0.9855 0.1697 -46.8195 478.4683)" class="st3" width="1.4" height="6.4"/>
				
					<rect x="259.3" y="262.1" transform="matrix(0.1697 -0.9855 0.9855 0.1697 -44.5689 475.6024)" class="st3" width="1.4" height="4.4"/>
				
					<rect x="259.7" y="259.5" transform="matrix(0.1697 -0.9855 0.9855 0.1697 -41.6423 473.8913)" class="st3" width="1.4" height="4.4"/>
				
					<rect x="260.2" y="256.9" transform="matrix(0.1697 -0.9855 0.9855 0.1697 -38.7167 472.1788)" class="st3" width="1.4" height="4.4"/>
				
					<rect x="261.7" y="253.4" transform="matrix(0.1697 -0.9855 0.9855 0.1697 -35.1146 471.622)" class="st3" width="1.4" height="6.4"/>
				
					<rect x="261.1" y="251.7" transform="matrix(0.1697 -0.9855 0.9855 0.1697 -32.8683 468.75)" class="st3" width="1.4" height="4.4"/>
				
					<rect x="261.5" y="249.1" transform="matrix(0.1697 -0.9855 0.9855 0.1697 -29.9427 467.0376)" class="st3" width="1.4" height="4.4"/>
				
					<rect x="262" y="246.5" transform="matrix(0.1697 -0.9855 0.9855 0.1697 -27.0144 465.3287)" class="st3" width="1.4" height="4.4"/>
				
					<rect x="263.4" y="243.1" transform="matrix(0.1697 -0.9855 0.9855 0.1697 -23.4123 464.772)" class="st3" width="1.4" height="6.4"/>
				
					<rect x="262.9" y="241.3" transform="matrix(0.1697 -0.9855 0.9855 0.1697 -21.166 461.9001)" class="st3" width="1.4" height="4.4"/>
				
					<rect x="263.3" y="238.7" transform="matrix(0.1697 -0.9855 0.9855 0.1697 -18.2404 460.1876)" class="st3" width="1.4" height="4.4"/>
				
					<rect x="263.8" y="236.2" transform="matrix(0.1697 -0.9855 0.9855 0.1697 -15.3149 458.4751)" class="st3" width="1.4" height="4.4"/>
				
					<rect x="265.2" y="232.7" transform="matrix(0.1697 -0.9855 0.9855 0.1697 -11.7117 457.9198)" class="st3" width="1.4" height="6.4"/>
				
					<rect x="264.6" y="231" transform="matrix(0.1697 -0.9855 0.9855 0.1697 -9.461 455.0536)" class="st3" width="1.4" height="4.4"/>
				
					<rect x="265.1" y="228.4" transform="matrix(0.1697 -0.9855 0.9855 0.1697 -6.5393 453.3363)" class="st3" width="1.4" height="4.4"/>
				
					<rect x="265.5" y="225.8" transform="matrix(0.1697 -0.9855 0.9855 0.1697 -3.6115 451.6265)" class="st3" width="1.4" height="4.4"/>
				
					<rect x="267" y="222.3" transform="matrix(0.1697 -0.9855 0.9855 0.1697 -1.054771e-02 451.0685)" class="st3" width="1.4" height="6.4"/>
				
					<rect x="266.4" y="220.6" transform="matrix(0.1697 -0.9855 0.9855 0.1697 2.2412 448.2035)" class="st3" width="1.4" height="4.4"/>
				
					<rect x="266.9" y="218" transform="matrix(0.1697 -0.9855 0.9855 0.1697 5.1669 446.491)" class="st3" width="1.4" height="4.4"/>
				
					<rect x="267.3" y="215.4" transform="matrix(0.1697 -0.9855 0.9855 0.1697 8.0924 444.7785)" class="st3" width="1.4" height="4.4"/>
				
					<rect x="268.8" y="212" transform="matrix(0.1697 -0.9855 0.9855 0.1697 11.6946 444.2218)" class="st3" width="1.4" height="6.4"/>
				
					<rect x="268.2" y="210.2" transform="matrix(0.1697 -0.9855 0.9855 0.1697 13.9407 441.3503)" class="st3" width="1.4" height="4.4"/>
				
					<rect x="268.7" y="207.6" transform="matrix(0.1697 -0.9855 0.9855 0.1697 16.8691 439.6409)" class="st3" width="1.4" height="4.4"/>
				
					<rect x="269.1" y="205" transform="matrix(0.1697 -0.9855 0.9855 0.1697 19.7947 437.9284)" class="st3" width="1.4" height="4.4"/>
				
					<rect x="270.6" y="201.6" transform="matrix(0.1697 -0.9855 0.9855 0.1697 23.3968 437.3717)" class="st3" width="1.4" height="6.4"/>
				
					<rect x="270" y="199.9" transform="matrix(0.1697 -0.9855 0.9855 0.1697 25.6429 434.5003)" class="st3" width="1.4" height="4.4"/>
				
					<rect x="270.4" y="197.3" transform="matrix(0.1697 -0.9855 0.9855 0.1697 28.5685 432.7878)" class="st3" width="1.4" height="4.4"/>
				
					<rect x="270.9" y="194.7" transform="matrix(0.1697 -0.9855 0.9855 0.1697 31.4941 431.0753)" class="st3" width="1.4" height="4.4"/>
				
					<rect x="272.4" y="191.2" transform="matrix(0.1697 -0.9855 0.9855 0.1697 35.0998 430.5223)" class="st3" width="1.4" height="6.4"/>
			</g>
		</g>
		<g>
			<path class="st10" d="M358.9,202.1H141.1c-1.8,0-3.3-1.5-3.3-3.3v-7.4c0-1.8,1.5-3.3,3.3-3.3h217.7c1.8,0,3.3,1.5,3.3,3.3v7.4
				C362.1,200.7,360.7,202.1,358.9,202.1z"/>
			<g>
				<path class="st11" d="M332.3,189.3v12.8h16.1v-12.8c0-0.4-0.1-0.8-0.1-1.2h-15.9C332.3,188.5,332.3,188.9,332.3,189.3z"/>
				<path class="st11" d="M151.6,189.3v12.8h16.1v-12.8c0-0.4-0.1-0.8-0.1-1.2h-15.9C151.6,188.5,151.6,188.9,151.6,189.3z"/>
			</g>
			<path class="st11" d="M355.1,196.6H144.9c-2.9,0-5.3-1.7-6.4-4.2c-0.4,0.9-0.6,1.8-0.6,2.8c0,3.9,3.1,7,7,7h210.3
				c3.9,0,7-3.1,7-7c0-1-0.2-1.9-0.6-2.8C360.5,194.8,358,196.6,355.1,196.6z"/>
			<path class="st12" d="M144.9,191h210.3c3.4,0,6.2,2.4,6.9,5.6c0.1-0.5,0.1-0.9,0.1-1.4c0-3.9-3.1-7-7-7H144.9c-3.9,0-7,3.1-7,7
				c0,0.5,0.1,1,0.1,1.4C138.7,193.4,141.5,191,144.9,191z"/>
			<path class="st11" d="M190.5,202.1H218c3.3-7.6,20.9-6.9,26.7-6.5c1,0.1,1.6-0.9,1.3-1.8c-1.1-2.5-3.5-4.3-6.7-5.8h-50.5
				L190.5,202.1z"/>
			<path class="st11" d="M355.1,188.1H258c3.4,3,7.2,6.2,11.5,9.8c1.8,1.5,3.6,2.9,5.3,4.2h80.4c3.9,0,7-3.1,7-7
				C362.1,191.3,359,188.1,355.1,188.1z"/>
		</g>
		<g>
			<path class="st3" d="M184.6,182.8L184.6,182.8c-2.5,1.4-5.4,1.8-8.2,1.1l0,0L179,204l0,0c2.5-1.4,5.4-1.8,8.2-1.1h0L184.6,182.8z
				"/>
			<path class="st1" d="M176.4,183.9l0.3,2.1c2.8,0.7,5.7,0.4,8.2-1.1l-0.3-2.1C182.1,184.2,179.2,184.6,176.4,183.9z"/>
			<path class="st4" d="M218,254.1c-0.5-3.7-0.7-7.3-0.6-10.6c0.2-8.3-0.1-16.6-1.3-24.8l-1.8-12.3c-0.6-4.1-4.1-7.4-8.3-7.3
				c-4.8,0.1-8.4,4.3-7.9,9l1.4,12.7c0.9,8.2,2.7,16.4,5,24.3c0.9,3.2,1.7,6.7,2.1,10.4c0.6,4.9,0.8,9.6,0.4,13.8
				c-0.7,8.7-0.3,17.4,0.6,26.1l5.4,49.5c0.5,4.5,4.6,7.8,9.1,7.2l5.2-0.7c4.5-0.6,7.7-4.8,7-9.3l-7.3-49.2
				c-1.3-8.6-3.2-17.2-6-25.4C219.7,263.6,218.6,259,218,254.1z"/>
			<path class="st5" d="M227.1,293c-1.3-8.6-3.2-17.2-6-25.4c-1.4-4-2.5-8.6-3.1-13.5c-0.5-3.7-0.7-7.3-0.6-10.6
				c0.2-8.3-0.1-16.6-1.3-24.8l-1.8-12.3c-0.5-3.5-3.2-6.4-6.6-7.1c0.4,0.8,0.7,1.8,0.9,2.7l1.8,12.3c1.2,8.2,1.5,16.5,1.3,24.8
				c-0.1,3.3,0.1,6.9,0.6,10.6c0.6,4.9,1.7,9.5,3.1,13.5c2.9,8.2,4.7,16.8,6,25.4l7.3,49.2c0.7,4.5-2.5,8.7-7,9.3l-5.2,0.7
				c-0.9,0.1-1.8,0-2.6-0.1c1.5,3,4.8,5,8.3,4.5l5.2-0.7c4.5-0.6,7.7-4.8,7-9.3L227.1,293z"/>
			<path class="st6" d="M215.9,347.1l-5.4-49.5c-1-8.7-1.3-17.4-0.6-26.1c0.3-4.2,0.2-8.9-0.4-13.8c-0.5-3.7-1.2-7.2-2.1-10.4
				c-2.3-8-4.1-16.1-5-24.3l-1.4-12.7c-0.5-4.7,3-8.9,7.9-9c1.2,0,2.3,0.2,3.3,0.7c-1.5-1.7-3.7-2.9-6.2-2.8c-4.8,0.1-8.4,4.3-7.9,9
				l1.4,12.7c0.9,8.2,2.7,16.4,5,24.3c0.9,3.2,1.7,6.7,2.1,10.4c0.6,4.9,0.8,9.6,0.4,13.8c-0.7,8.7-0.3,17.4,0.6,26.1l5.4,49.5
				c0.3,3,2.2,5.4,4.8,6.5C216.8,350.3,216.1,348.8,215.9,347.1z"/>
			<path class="st7" d="M213.1,345c0.5,4.5,4.6,7.8,9.1,7.2l5.2-0.7c4.5-0.6,7.7-4.8,7-9.3l-3.1-21.1l-20.5,2.7L213.1,345z"/>
			<path class="st9" d="M231.3,321.1l-5,0.6l2.4,16.1c0.7,4.5-2.5,8.7-7,9.3l-5.2,0.7c-0.9,0.1-1.8,0-2.6-0.1c1.5,3,4.8,5,8.3,4.5
				l5.2-0.7c4.5-0.6,7.7-4.8,7-9.3L231.3,321.1z"/>
			<path class="st8" d="M215.9,347.1l-2.3-21.2l18.1-2.3l-0.4-2.4l-20.5,2.7l2.3,21.2c0.3,3,2.2,5.4,4.8,6.5
				C216.8,350.3,216.1,348.8,215.9,347.1z"/>
			<path class="st1" d="M177.6,206.7l-11.1,1.4l-3.2-25.1l11.1-1.4c0.9-0.1,1.7,0.5,1.9,1.4l2.8,21.8
				C179.2,205.7,178.5,206.6,177.6,206.7z"/>
			<path class="st2" d="M173.2,181.7l-9.9,1.3l0.3,2.4l9.9-1.3c1.6-0.2,3,0.9,3.2,2.5l-0.3-2.4C176.2,182.6,174.8,181.5,173.2,181.7
				z"/>
			<path class="st3" d="M175.9,203l-9.9,1.3l0.5,3.8l9.9-1.3c1.6-0.2,2.7-1.6,2.5-3.2l-0.5-3.8C178.6,201.4,177.5,202.8,175.9,203z"
				/>
			
				<rect x="197.5" y="195.5" transform="matrix(0.9918 -0.128 0.128 0.9918 -24.3859 28.0058)" class="st1" width="16.4" height="16.4"/>
			
				<rect x="197" y="195.5" transform="matrix(0.9918 -0.128 0.128 0.9918 -23.8869 27.9085)" class="st3" width="16.4" height="8.5"/>
			
				<rect x="197.5" y="196.3" transform="matrix(0.9918 -0.128 0.128 0.9918 -24.5495 27.177)" class="st2" width="3.2" height="16.4"/>
			
				<rect x="208.7" y="194.8" transform="matrix(0.9918 -0.128 0.128 0.9918 -24.247 28.7183)" class="st3" width="5.1" height="16.4"/>
			<path class="st1" d="M215.1,204.3l-18.4,2.4c-0.8,0.1-1.4,0.9-1.3,1.7l0.4,3.4c0.1,0.8,0.9,1.4,1.7,1.3l18.4-2.4
				c0.8-0.1,1.4-0.9,1.3-1.7l-0.4-3.4C216.7,204.8,215.9,204.2,215.1,204.3z"/>
			<path class="st2" d="M198.2,209.7c-0.2-1.8,1-3.4,2.8-3.6l-2.5,0.3c-1.8,0.2-3,1.8-2.8,3.6c0.2,1.8,1.8,3,3.6,2.8l2.5-0.3
				C200,212.7,198.4,211.5,198.2,209.7z"/>
			<path class="st3" d="M213.4,204.5l-5,0.6c1.8-0.2,3.4,1,3.6,2.8c0.2,1.8-1,3.4-2.8,3.6l5-0.6c1.8-0.2,3-1.8,2.8-3.6
				C216.8,205.5,215.2,204.3,213.4,204.5z"/>
			<path class="st1" d="M200.5,180l-15.2,0.3c-0.5,0-0.9,0.5-0.9,1l2.8,22c0.2,1.2,1.2,2,2.4,1.9l24-3.1
				c-1.5-11.6,20.6-10.7,27.1-10.2c1,0.1,1.6-0.9,1.3-1.8C236.9,178.3,200.5,180,200.5,180z"/>
			<path class="st3" d="M242.1,190c-0.8-1.8-2.4-3.3-4.4-4.6c0.2,0.3,0.3,0.6,0.5,0.9c0.4,0.9-0.3,1.9-1.3,1.8
				c-6.5-0.5-28.6-1.4-27.1,10.2l-22.8,2.9l0.3,2c0.2,1.2,1.2,2,2.4,1.9l24-3.1c-1.5-11.6,20.6-10.7,27.1-10.2
				C241.8,191.9,242.5,190.9,242.1,190z"/>
			<path class="st2" d="M189.1,204.7l-2.8-22c-0.1-0.5,0.3-1,0.9-1l15.2-0.3c0,0,26.8-1.3,37.7,5.8c-9.2-8.7-39.5-7.2-39.5-7.2
				l-15.2,0.3c-0.5,0-0.9,0.5-0.9,1l2.8,22c0.1,1,1,1.8,2,1.8C189.2,205,189.1,204.8,189.1,204.7z"/>
		</g>
		<g>
			<g>
				<path class="st4" d="M280.1,251.4c0.9,5.9,2.7,11.2,4.3,16.4c0.8,2.6,1.6,5.1,2.1,7.5c0.1,0.6,0.2,1.2,0.3,1.8
					c0.1,0.6,0.2,1.1,0.2,1.8c0.1,1.3,0.2,2.6,0.3,3.9c0.2,5.2,0.2,10.6-0.1,15.8c-0.3,5.3-0.9,10.5-1.9,15.6l0,0
					c-0.5,2.7,1.3,5.4,4,5.9c2.7,0.5,5.4-1.3,5.9-4c0-0.1,0-0.2,0-0.2c0.8-5.7,1.2-11.3,1.3-16.9c0.1-5.6-0.1-11.2-0.6-16.8
					c-0.1-1.4-0.3-2.8-0.5-4.3c-0.1-0.7-0.2-1.5-0.4-2.3c-0.2-0.7-0.3-1.5-0.5-2.2c-0.8-2.9-1.7-5.5-2.6-8.1
					c-1.9-5.1-3.8-10.1-4.7-15l0-0.1c-0.4-2-2.3-3.3-4.2-2.9C281.1,247.7,279.8,249.5,280.1,251.4z"/>
				<path class="st6" d="M293.4,315.6c0-0.1,0-0.2,0-0.2c0.8-5.7,1.2-11.3,1.3-16.9c0.1-5.6-0.1-11.2-0.6-16.8
					c-0.1-1.4-0.3-2.8-0.5-4.3c-0.1-0.7-0.2-1.5-0.4-2.3c-0.2-0.7-0.3-1.5-0.5-2.2c-0.8-2.9-1.7-5.5-2.6-8.1
					c-1.9-5.1-3.8-10.1-4.7-15l0-0.1c-0.2-1.2-1-2.1-2-2.6c1.9-0.2,3.6,1.1,3.9,2.9l0,0.1c0.9,4.9,2.8,9.8,4.7,15
					c0.9,2.6,1.9,5.2,2.6,8.1c0.2,0.7,0.4,1.5,0.5,2.2c0.1,0.7,0.3,1.6,0.4,2.3c0.2,1.4,0.4,2.8,0.5,4.3c0.5,5.6,0.7,11.2,0.6,16.8
					c-0.1,5.6-0.4,11.2-1.3,16.9c0,0.1,0,0.2,0,0.2c-0.5,2.7-3.2,4.5-5.9,4c-0.3-0.1-0.6-0.1-0.8-0.2
					C290.9,319.7,293,318,293.4,315.6z"/>
				<path class="st5" d="M283,247.3c0.1,0,0.2,0,0.3,0c-0.3,0.6-0.4,1.4-0.3,2.1c0.9,5.9,2.7,11.2,4.3,16.4c0.8,2.6,1.6,5.1,2.1,7.5
					c0.1,0.6,0.2,1.2,0.3,1.8c0.1,0.6,0.2,1.1,0.2,1.8c0.1,1.3,0.2,2.6,0.3,3.9c0.2,5.2,0.2,10.6-0.1,15.8
					c-0.3,5.3-0.9,10.5-1.9,15.6l0,0c-0.5,2.7,1.3,5.4,4,5.9c0.8,0.1,1.6,0.1,2.3-0.1c-1.1,1.6-3.1,2.5-5.1,2.1
					c-2.7-0.5-4.5-3.2-4-5.9l0,0c1-5,1.5-10.3,1.9-15.6c0.3-5.3,0.4-10.6,0.1-15.8c-0.1-1.3-0.2-2.6-0.3-3.9
					c-0.1-0.6-0.1-1.2-0.2-1.8c-0.1-0.6-0.2-1.2-0.3-1.8c-0.5-2.4-1.3-4.9-2.1-7.5c-1.6-5.1-3.5-10.5-4.3-16.4
					C279.8,249.5,281.1,247.7,283,247.3z"/>
				<path class="st1" d="M283,247.3c2-0.4,3.9,0.9,4.2,2.9l0,0.1c0.8,3.9,2.1,7.9,3.6,12l-8.6-1.5c-0.9-3-1.7-6.1-2.2-9.4
					C279.8,249.5,281.1,247.7,283,247.3z"/>
				<path class="st2" d="M285.3,249.9L285.3,249.9c-0.2-1.2-1-2.2-2-2.6c1.9-0.2,3.6,1.1,3.9,2.9l0,0.1c0.8,3.9,2.1,7.9,3.6,12
					L289,262C287.5,257.9,286.1,253.9,285.3,249.9z"/>
				<g>
					<path class="st3" d="M286.4,248.6c0.1,0.1,0.2,0.2,0.3,0.3C286.6,248.8,286.5,248.7,286.4,248.6z"/>
					<path class="st3" d="M285.8,247.9c-0.2-0.1-0.3-0.2-0.5-0.3C285.5,247.7,285.6,247.8,285.8,247.9z"/>
					<path class="st3" d="M283.3,247.3c0.7-0.1,1.4,0,2,0.3C284.6,247.3,284,247.2,283.3,247.3z"/>
					<path class="st3" d="M283,247.3c0.1,0,0.2,0,0.3,0c-0.3,0.6-0.4,1.4-0.3,2.1c0.6,4.3,1.8,8.2,3,12.1l-3.7-0.6
						c-0.9-3-1.7-6.1-2.2-9.4C279.8,249.5,281.1,247.7,283,247.3z"/>
					<path class="st3" d="M286.3,248.4c-0.1-0.1-0.3-0.2-0.4-0.4C286,248.1,286.2,248.2,286.3,248.4z"/>
					<path class="st3" d="M287,249.5c0-0.1-0.1-0.2-0.1-0.3C286.9,249.3,287,249.4,287,249.5z"/>
				</g>
				<path class="st3" d="M283,247.3c2-0.4,3.9,0.9,4.2,2.9l0,0.1c0.3,1.3,0.6,2.7,1,4.1c-1.3,2.6-3.7,4.4-6.4,4.9
					c-0.7-2.5-1.3-5.1-1.7-7.8C279.8,249.5,281.1,247.7,283,247.3z"/>
				<path class="st7" d="M296,310c-0.2,1.9-0.4,3.8-0.7,5.7c0,0.1,0,0.2,0,0.2c-0.5,2.7-3.2,4.5-5.9,4c-2.7-0.5-4.5-3.2-4-5.9l0,0
					c0.4-1.9,0.6-3.8,0.9-5.7L296,310z"/>
				<g>
					<path class="st9" d="M295.3,316c-0.1,0.3-0.2,0.7-0.3,1C295.1,316.7,295.3,316.3,295.3,316z"/>
					<path class="st9" d="M286.3,308.4l2.5,0.4c-0.2,1.1-0.3,2.2-0.5,3.2l0,0c-0.5,2.7,1.3,5.4,4,5.9c0.8,0.1,1.6,0.1,2.3-0.1
						c0.2-0.3,0.3-0.6,0.5-0.9c-0.9,2.2-3.2,3.5-5.6,3c-2.7-0.5-4.5-3.2-4-5.9l0,0C285.8,312.2,286,310.3,286.3,308.4z"/>
				</g>
				<path class="st8" d="M293.5,315.7c0-0.1,0-0.2,0-0.2c0.3-1.9,0.5-3.8,0.7-5.7l1.9,0.3c-0.2,1.9-0.4,3.8-0.7,5.7
					c0,0.1,0,0.2,0,0.2c-0.5,2.7-3.2,4.5-5.9,4c-0.3-0.1-0.5-0.1-0.8-0.2C290.9,319.7,293,318,293.5,315.7z"/>
			</g>
		</g>
		<g>
			<path class="st4" d="M263.4,377.1v-12.2c-4.5-0.6-9.1-1-13.6-1.1l-29.9-0.7c-3.3-0.1-6,2.6-6,5.9v3.9c0,3.3,2.7,6,6,5.9l29.9-0.7
				C254.4,378.1,258.9,377.8,263.4,377.1z"/>
			<path class="st6" d="M248,365.7c5.2,0.1,10.3,0.5,15.4,1.3v-2.1c-4.5-0.6-9.1-1-13.6-1.1l-29.9-0.7c-2.2,0-4.1,1.1-5.1,2.8
				c1-0.6,2.1-1,3.4-1L248,365.7z"/>
			<path class="st5" d="M263.4,377.1v-3.3c-3.3,0.3-6.6,0.5-9.9,0.6l-29.9,0.7c-3.3,0.1-6-2.6-6-5.9v-3.9c0-0.7,0.1-1.3,0.3-1.9
				c-2.3,0.8-4.1,3-4.1,5.6v3.9c0,3.3,2.7,6,6,5.9l29.9-0.7C254.4,378.1,258.9,377.8,263.4,377.1z"/>
			<path class="st7" d="M219.9,363.1c-3.3-0.1-6,2.6-6,5.9v3.9c0,3.3,2.7,6,6,5.9l12.9-0.3v-15.1L219.9,363.1z"/>
			<path class="st9" d="M232.8,378.6v-3.6l-9.2,0.2c-3.3,0.1-6-2.6-6-5.9v-3.9c0-0.7,0.1-1.3,0.3-1.9c-2.3,0.8-4.1,3-4.1,5.6v3.9
				c0,3.3,2.7,6,6,5.9L232.8,378.6z"/>
			<path class="st8" d="M218.1,365l12.9,0.3v13.3l1.8,0v-15.1l-12.9-0.3c-2.2,0-4.1,1.1-5.1,2.8C215.7,365.3,216.8,365,218.1,365z"
				/>
			<path class="st4" d="M268.4,379.4v-16.8c0-0.6-0.5-1.2-1.2-1.2h-2.7c-0.6,0-1.2,0.5-1.2,1.2v16.8c0,0.6,0.5,1.2,1.2,1.2h2.7
				C267.9,380.6,268.4,380,268.4,379.4z"/>
			<path class="st6" d="M265.1,362.3c1.4,0,2.5,1.1,2.5,2.5v14.1c0,0.5-0.1,0.9-0.4,1.3c0.7-0.4,1.2-1.2,1.2-2.1V364
				c0-1.4-1.1-2.5-2.5-2.5c-0.9,0-1.7,0.5-2.1,1.2C264.2,362.4,264.6,362.3,265.1,362.3z"/>
			<path class="st5" d="M268.2,379.1c-0.3,0.1-0.6,0.2-1,0.2c-1.4,0-2.5-1.1-2.5-2.5v-14.1c0-0.4,0.1-0.7,0.2-1
				c-0.9,0.4-1.5,1.3-1.5,2.3V378c0,1.4,1.1,2.5,2.5,2.5C267,380.6,267.8,379.9,268.2,379.1z"/>
			<g>
				<path class="st7" d="M234.5,372.2v-2.5c0-0.6,0.5-1.1,1.1-1.1h18c0.6,0,1.1,0.5,1.1,1.1v2.5c0,0.6-0.5,1.1-1.1,1.1h-18
					C235,373.3,234.5,372.8,234.5,372.2z"/>
				<path class="st8" d="M254.2,372.4c-0.4,0.3-0.9,0.5-1.4,0.5h-15.5c-1.3,0-2.3-1-2.3-2.3c0-0.5,0.2-1,0.5-1.4
					c-0.6,0.4-0.9,1.1-0.9,1.8v0c0,1.3,1,2.3,2.3,2.3h15.5C253.1,373.3,253.8,373,254.2,372.4z"/>
				<path class="st9" d="M236.1,369.4h15.5c1.3,0,2.3,1,2.3,2.3c0,0.5-0.1,0.9-0.4,1.2c0.7-0.4,1.1-1.1,1.1-2v0c0-1.3-1-2.3-2.3-2.3
					h-15.5c-0.8,0-1.5,0.4-2,1.1C235.3,369.5,235.7,369.4,236.1,369.4z"/>
			</g>
			<rect x="268.4" y="369.3" class="st1" width="42" height="3.5"/>
			<rect x="268.4" y="371.7" class="st3" width="42" height="1"/>
			<rect x="268.4" y="369.3" class="st2" width="42" height="1"/>
			<path class="st1" d="M319.8,372.2v-2.4c0-0.3-0.2-0.6-0.5-0.6l-8.2-0.9c-0.4,0-0.7,0.2-0.7,0.6v4.3c0,0.4,0.3,0.6,0.7,0.6
				l8.2-0.9C319.6,372.8,319.8,372.5,319.8,372.2z"/>
			<path class="st2" d="M311.1,369.3l8.2,0.9c0.3,0,0.5,0.3,0.5,0.6v-1c0-0.3-0.2-0.6-0.5-0.6l-8.2-0.9c-0.4,0-0.7,0.2-0.7,0.6v1
				C310.4,369.5,310.7,369.2,311.1,369.3z"/>
			<path class="st3" d="M319.3,372.8c0.3,0,0.5-0.3,0.5-0.6V371c0,0.3-0.2,0.6-0.5,0.6l-8.2,0.9c-0.4,0-0.7-0.2-0.7-0.6v1.2
				c0,0.4,0.3,0.6,0.7,0.6L319.3,372.8z"/>
		</g>
		<g>
			<path class="st4" d="M163.8,379.1l2-11.8c-4.3-1.4-8.6-2.4-13-3.2l-28.8-5.5c-3.2-0.6-6.3,1.5-6.8,4.7l-0.6,3.7
				c-0.5,3.2,1.7,6.2,4.9,6.7l29,4.2C154.9,378.6,159.4,379,163.8,379.1z"/>
			<path class="st6" d="M150.8,365.6c5,0.9,9.9,2.2,14.7,3.8l0.3-2.1c-4.3-1.4-8.6-2.4-13-3.2l-28.8-5.5c-2.1-0.4-4.1,0.4-5.4,1.9
				c1-0.5,2.2-0.6,3.4-0.4L150.8,365.6z"/>
			<path class="st5" d="M163.8,379.1l0.5-3.1c-3.2-0.2-6.5-0.6-9.7-1l-29-4.2c-3.2-0.5-5.4-3.5-4.9-6.7l0.6-3.7
				c0.1-0.6,0.3-1.2,0.6-1.8c-2.4,0.4-4.4,2.2-4.8,4.7l-0.6,3.7c-0.5,3.2,1.7,6.2,4.9,6.7l29,4.2C154.9,378.6,159.4,379,163.8,379.1
				z"/>
			<path class="st7" d="M124,358.6c-3.2-0.6-6.3,1.5-6.8,4.7l-0.6,3.7c-0.5,3.2,1.7,6.2,4.9,6.7l12.5,1.8l2.5-14.6L124,358.6z"/>
			<path class="st9" d="M134,375.5l0.6-3.5l-8.9-1.3c-3.2-0.5-5.4-3.5-4.9-6.7l0.6-3.7c0.1-0.6,0.3-1.2,0.6-1.8
				c-2.4,0.4-4.4,2.2-4.8,4.7l-0.6,3.7c-0.5,3.2,1.7,6.2,4.9,6.7L134,375.5z"/>
			<path class="st8" d="M122,360.1l12.4,2.4l-2.2,12.8l1.7,0.3l2.5-14.6l-12.4-2.4c-2.1-0.4-4.1,0.4-5.4,1.9
				C119.6,360,120.8,359.8,122,360.1z"/>
			<path class="st4" d="M168.3,382.1L171,366c0.1-0.6-0.3-1.2-0.9-1.3l-2.6-0.4c-0.6-0.1-1.2,0.3-1.3,0.9l-2.7,16.2
				c-0.1,0.6,0.3,1.2,0.9,1.3l2.6,0.4C167.6,383.2,168.2,382.8,168.3,382.1z"/>
			<path class="st6" d="M167.9,365.1c1.3,0.2,2.2,1.5,2,2.8l-2.3,13.6c-0.1,0.5-0.3,0.9-0.6,1.2c0.8-0.3,1.4-1,1.5-1.9l2.3-13.6
				c0.2-1.3-0.7-2.6-2-2.8c-0.9-0.1-1.7,0.2-2.2,0.8C167,365.1,167.4,365,167.9,365.1z"/>
			<path class="st5" d="M168.2,381.8c-0.3,0.1-0.7,0.1-1,0c-1.3-0.2-2.2-1.5-2-2.8l2.3-13.6c0.1-0.3,0.2-0.7,0.4-0.9
				c-0.9,0.2-1.7,1-1.8,2l-2.3,13.6c-0.2,1.3,0.7,2.6,2,2.8C166.7,383,167.6,382.6,168.2,381.8z"/>
			<g>
				<path class="st7" d="M136.7,369.7l0.4-2.4c0.1-0.6,0.6-1,1.2-0.9l17.4,2.9c0.6,0.1,1,0.6,0.9,1.2l-0.4,2.4
					c-0.1,0.6-0.6,1-1.2,0.9l-17.4-2.9C137,370.9,136.6,370.3,136.7,369.7z"/>
				<path class="st8" d="M155.7,373.1c-0.4,0.2-0.9,0.3-1.4,0.2l-15-2.5c-1.2-0.2-2.1-1.4-1.9-2.6c0.1-0.5,0.3-0.9,0.7-1.3
					c-0.6,0.3-1.1,0.9-1.2,1.6v0c-0.2,1.2,0.6,2.4,1.9,2.6l15,2.5C154.5,373.8,155.2,373.6,155.7,373.1z"/>
				<path class="st9" d="M138.8,367.2l15,2.5c1.2,0.2,2.1,1.4,1.9,2.6c-0.1,0.4-0.3,0.8-0.6,1.1c0.7-0.3,1.2-0.9,1.4-1.7l0,0
					c0.2-1.2-0.6-2.4-1.9-2.6l-15-2.5c-0.8-0.1-1.6,0.2-2.1,0.7C137.9,367.2,138.3,367.2,138.8,367.2z"/>
			</g>
			
				<rect x="188.2" y="356.9" transform="matrix(0.1661 -0.9861 0.9861 0.1661 -213.8252 502.0716)" class="st1" width="3.4" height="41.1"/>
			
				<rect x="189.2" y="358.1" transform="matrix(0.1661 -0.9861 0.9861 0.1661 -215.1613 502.8649)" class="st3" width="1" height="41.1"/>
			
				<rect x="189.6" y="355.7" transform="matrix(0.1661 -0.9861 0.9861 0.1661 -212.4888 501.2792)" class="st2" width="1" height="41.1"/>
			<path class="st1" d="M217.5,381.8l-7.1-2.6l-0.6,3.4l7.5-0.2C217.8,382.4,217.8,381.9,217.5,381.8z"/>
			<path class="st3" d="M217.4,382.4c0.3,0,0.4-0.5,0.1-0.6l-7.5-0.3l-0.2,1L217.4,382.4z"/>
			<path class="st2" d="M217.5,382.4c0.3-0.1,0.3-0.4,0-0.6l-7.1-2.6l-0.1,0.5L217.5,382.4C217.5,382.3,217.5,382.3,217.5,382.4z"/>
		</g>
		<g>
			<g>
				<path class="st4" d="M311.2,267.1l-11-2.3l-9.9,39.1c-0.7,3,1.2,6,4.2,6.6l3.5,0.7c3,0.6,5.9-1.3,6.5-4.3L311.2,267.1z
					 M296.8,307.7c-1.4-0.3-2.3-1.7-2-3.1c0.3-1.4,1.7-2.3,3.1-2c1.4,0.3,2.3,1.7,2,3.1C299.6,307.1,298.2,308,296.8,307.7z"/>
				<path class="st6" d="M302.1,265.2l-1.9-0.4l-9.9,39.1c-0.5,2,0.2,3.9,1.6,5.2c-0.4-1-0.5-2.1-0.2-3.2
					C291.5,305.8,300.4,269.7,302.1,265.2z"/>
				<path class="st5" d="M311.2,267.1l-2.9-0.6c-0.3,3-6.5,36.3-6.5,36.3c-0.3,1.3-1,2.5-2,3.3c-0.4,1.2-1.7,2-3,1.7
					c-0.4-0.1-0.8-0.3-1.1-0.6c-0.2,0-0.3,0-0.5,0l-3.5-0.7c-0.6-0.1-1.1-0.4-1.6-0.7c0.3,2.3,1.9,4.2,4.3,4.7l3.5,0.7
					c3,0.6,5.9-1.3,6.5-4.3L311.2,267.1z"/>
				<path class="st7" d="M304.4,306.9c0,0,0.4-2.3,1-5.8l-13.6-2.9c-0.8,3.5-1.6,5.7-1.6,5.7c-0.7,3,1.2,6,4.2,6.6l3.5,0.7
					C300.9,311.8,303.8,309.9,304.4,306.9z M296.8,307.7c-1.4-0.3-2.3-1.7-2-3.1c0.3-1.4,1.7-2.3,3.1-2c1.4,0.3,2.3,1.7,2,3.1
					C299.6,307.1,298.2,308,296.8,307.7z"/>
				<path class="st9" d="M305.4,301l-2.9-0.6l-0.5,2.5c-0.3,1.6-1.3,2.9-2.6,3.7c-0.1,0.2-0.3,0.4-0.5,0.5c0,0-0.1,0-0.1,0.1
					c-0.2,0.1-0.4,0.3-0.6,0.4c0,0,0,0,0,0c-0.2,0.1-0.4,0.1-0.7,0.2c-0.1,0-0.1,0-0.2,0c-0.2,0-0.5,0-0.7,0c-0.1,0-0.3-0.1-0.4-0.1
					c-0.1,0-0.2-0.1-0.3-0.1c-0.3,0-0.5,0-0.8-0.1l-3.6-0.8c-0.6-0.1-1.1-0.4-1.6-0.7c0.3,2.2,2,4,4.3,4.5l3.5,0.7
					c3,0.6,5.9-1.3,6.5-4.3C304.4,306.9,304.8,304.6,305.4,301z"/>
				<path class="st8" d="M291.1,308.3c0-0.5,0-1.1,0.1-1.7l1.9-8.2l-1.5-0.3c-0.8,3.5-1.5,5.7-1.5,5.7
					C289.8,305.5,290.2,307.1,291.1,308.3z"/>
			</g>
			<path class="st7" d="M291.5,244l-1.1,5.1c-0.2,0.9,0.2,1.8,1,2.3c2.9,1.7,9.5,6.3,8.7,13.4l5.5,1.2l5.5,1.2
				c2.2-6.7,10.1-8.3,13.4-8.7c0.9-0.1,1.7-0.8,1.9-1.7l1.1-5.1L291.5,244z"/>
			<path class="st8" d="M293.1,251.2c-0.8-0.5-1.2-1.5-1-2.4l0.9-4.4l-1.6-0.3l-1.1,5.1c-0.2,0.9,0.2,1.8,1,2.3
				c2.9,1.7,9.5,6.3,8.7,13.4l1.6,0.3C302.6,257.8,296,252.9,293.1,251.2z"/>
			<g>
				<g>
					<path class="st9" d="M324.6,251.1l-0.7,3.1c-0.2,1-1,1.9-1.9,2c-3.4,0.5-11.4,2.6-13.8,10.3l2.9,0.6c2.2-6.7,10.1-8.3,13.4-8.7
						c0.9-0.1,1.7-0.8,1.9-1.7l1.1-5.1L324.6,251.1z"/>
				</g>
			</g>
			<path class="st1" d="M328.6,247.8l-36.5-7.7c-0.5-0.1-1,0.2-1.1,0.7l-0.4,2.1c-0.1,0.5,0.2,1,0.7,1.1l36.5,7.7
				c0.5,0.1,1-0.2,1.1-0.7l0.4-2.1C329.4,248.4,329.1,247.9,328.6,247.8z"/>
			<path class="st2" d="M328.2,247.7l-35.8-7.6c-0.7-0.1-1.4,0.3-1.5,1l-0.2,0.7c0.1-0.7,0.8-1.1,1.5-1l35.8,7.6
				c0.7,0.1,1.1,0.8,1,1.5l0.2-0.7C329.4,248.6,328.9,247.9,328.2,247.7z"/>
			<path class="st3" d="M327.6,250.4l-35.8-7.6c-0.7-0.1-1.1-0.8-1-1.5l-0.3,1.2c-0.1,0.7,0.3,1.4,1,1.5l35.8,7.6
				c0.7,0.1,1.4-0.3,1.5-1l0.3-1.2C329,250.1,328.3,250.6,327.6,250.4z"/>
			<path class="st1" d="M331.1,235.7l-36.5-7.7c-0.5-0.1-1,0.2-1.1,0.7l-0.4,2.1c-0.1,0.5,0.2,1,0.7,1.1l36.5,7.7
				c0.5,0.1,1-0.2,1.1-0.7l0.4-2.1C332,236.3,331.6,235.8,331.1,235.7z"/>
			
				<rect x="292.8" y="235.7" transform="matrix(0.9783 0.2073 -0.2073 0.9783 56.4745 -59.2958)" class="st2" width="36.9" height="8.3"/>
			
				<rect x="292" y="242.7" transform="matrix(0.9783 0.2073 -0.2073 0.9783 57.1774 -59.0691)" class="st1" width="36.9" height="1.3"/>
			
				<rect x="297.2" y="205.5" transform="matrix(0.9783 0.2073 -0.2073 0.9783 52.2089 -60.6772)" class="st4" width="36.9" height="26.6"/>
			
				<rect x="297.6" y="201.9" transform="matrix(0.9783 0.2073 -0.2073 0.9783 51.0917 -57.2432)" class="st6" width="2.3" height="26.6"/>
			
				<rect x="329.9" y="208.9" transform="matrix(0.9783 0.2073 -0.2073 0.9783 53.2684 -63.9487)" class="st5" width="3.9" height="26.6"/>
			
				<rect x="322.1" y="207.4" transform="matrix(0.9783 0.2073 -0.2073 0.9783 52.8046 -62.5106)" class="st5" width="5.1" height="26.6"/>
			
				<rect x="314.4" y="205.5" transform="matrix(0.9783 0.2073 -0.2073 0.9783 52.2267 -60.7335)" class="st5" width="3" height="26.6"/>
			
				<rect x="306.7" y="203.7" transform="matrix(0.9783 0.2073 -0.2073 0.9783 51.6821 -59.0142)" class="st5" width="1.3" height="26.6"/>
			
				<rect x="319.1" y="206.4" transform="matrix(0.9783 0.2073 -0.2073 0.9783 52.4776 -61.514)" class="st5" width="1.3" height="26.6"/>
			<path class="st2" d="M330.8,235.6L295,228c-0.7-0.1-1.4,0.3-1.5,1l-0.2,0.7c0.1-0.7,0.8-1.1,1.5-1l35.8,7.6
				c0.7,0.1,1.1,0.8,1,1.5l0.2-0.7C331.9,236.5,331.5,235.8,330.8,235.6z"/>
			<path class="st3" d="M330.2,238.3l-35.8-7.6c-0.7-0.1-1.1-0.8-1-1.5l-0.3,1.2c-0.1,0.7,0.3,1.4,1,1.5l35.8,7.6
				c0.7,0.1,1.4-0.3,1.5-1l0.3-1.2C331.6,238,330.9,238.5,330.2,238.3z"/>
			<path class="st3" d="M314.4,240.9c-0.3,1.6-1.9,2.7-3.6,2.3c-1.6-0.3-2.7-1.9-2.3-3.6c0.3-1.6,1.9-2.7,3.6-2.3
				C313.7,237.7,314.8,239.3,314.4,240.9z"/>
			<ellipse transform="matrix(0.8379 -0.5458 0.5458 0.8379 -80.3303 208.5827)" class="st1" cx="311" cy="239.5" rx="3" ry="3"/>
			<ellipse transform="matrix(0.857 -0.5153 0.5153 0.857 -79.0955 194.6611)" class="st2" cx="311.2" cy="239.8" rx="3" ry="3"/>
		</g>
		<g>
			<g>
				<path class="st1" d="M184.1,263.2l-5.3,1.8l-9.1-26.5c-0.9-2.6-0.2-5.5,1.7-7.4l59.8-59.5c0.4-0.4,0.5-1,0.4-1.5l-9.6-28
					c-0.3-0.8-1.1-1.2-1.9-0.9L185.9,153l-1.8-5.3l34.1-11.7c3.7-1.3,7.8,0.7,9,4.4l9.6,28c0.9,2.6,0.2,5.5-1.7,7.4l-59.8,59.5
					c-0.4,0.4-0.5,1-0.4,1.5L184.1,263.2z"/>
			</g>
			<g>
				<g>
					<path class="st2" d="M171.9,232.7l59.8-59.5c0.4-0.4,0.5-1,0.4-1.5l-0.5-1.6c0.2,0.5,0,1.1-0.4,1.5l-59.8,59.5
						c-1.9,1.9-2.6,4.8-1.7,7.4l0.5,1.6C169.3,237.5,170,234.6,171.9,232.7z"/>
					<path class="st2" d="M218.2,135.9l-34.1,11.7l0.5,1.6l34.1-11.7c3.7-1.3,7.8,0.7,9,4.4l-0.5-1.6
						C226,136.6,221.9,134.6,218.2,135.9z"/>
				</g>
			</g>
			<g>
				<g>
					<path class="st3" d="M219.9,140.6c-0.3-0.8-1.1-1.2-1.9-0.9L185.2,151l0.7,2l34.2-11.8L219.9,140.6z"/>
					<path class="st3" d="M222.2,135.8c1,0.8,1.9,1.9,2.3,3.3l9.6,28c0.9,2.6,0.2,5.5-1.7,7.4l-59.8,59.5c-0.4,0.4-0.5,1-0.4,1.5
						l9.1,26.5l-3.3,1.1l0.7,2l5.3-1.8l-9.1-26.5c-0.2-0.5,0-1.1,0.4-1.5l59.8-59.5c1.9-1.9,2.6-4.8,1.7-7.4l-9.6-28
						C226.4,138,224.5,136.3,222.2,135.8z"/>
				</g>
			</g>
			<path class="st7" d="M211.2,158.5L93.1,199.1c-0.6,0.2-1.3-0.1-1.5-0.7l-9.8-28.6c-0.2-0.6,0.1-1.3,0.7-1.5l118.1-40.6
				c0.6-0.2,1.3,0.1,1.5,0.7l9.8,28.6C212.1,157.7,211.8,158.3,211.2,158.5z"/>
			<path class="st8" d="M199.6,128.1L83.4,168c-1.1,0.4-1.8,1.6-1.4,2.8l0.7,1.9c-0.4-1.1,0.2-2.4,1.4-2.8L200.3,130
				c1.1-0.4,2.4,0.2,2.8,1.4l-0.7-1.9C202,128.3,200.8,127.7,199.6,128.1z"/>
			<path class="st9" d="M208.4,153.8L92.3,193.7c-1.1,0.4-2.4-0.2-2.8-1.4l1.8,5.1c0.4,1.1,1.6,1.8,2.8,1.4l116.2-39.9
				c1.1-0.4,1.8-1.6,1.4-2.8l-1.8-5.1C210.2,152.1,209.6,153.4,208.4,153.8z"/>
			<path class="st4" d="M207.8,163L98.5,200.6c-0.9,0.3-1.9-0.2-2.2-1.1L84.8,166c-0.3-0.9,0.2-1.9,1.1-2.2l109.2-37.6
				c0.9-0.3,1.9,0.2,2.2,1.1l11.5,33.5C209.1,161.7,208.6,162.7,207.8,163z"/>
			<path class="st6" d="M195.5,132.1L89.1,168.7c-1.7,0.6-2.6,2.4-2,4.1l2.2,6.5c-0.6-1.7,0.3-3.5,2-4.1l106.4-36.6
				c1.7-0.6,3.5,0.3,4.1,2l-2.2-6.5C199,132.4,197.2,131.5,195.5,132.1z"/>
			<path class="st6" d="M193.7,126.8L87.3,163.4c-1.7,0.6-2.6,2.4-2,4.1l1,3c-0.6-1.7,0.3-3.5,2-4.1l106.4-36.6
				c1.7-0.6,3.5,0.3,4.1,2l-1-3C197.2,127.1,195.4,126.2,193.7,126.8z"/>
			<path class="st5" d="M203.4,154.9L97,191.5c-1.7,0.6-3.5-0.3-4.1-2l3,8.6c0.6,1.7,2.4,2.6,4.1,2l106.4-36.6
				c1.7-0.6,2.6-2.4,2-4.1l-3-8.6C206,152.5,205.1,154.3,203.4,154.9z"/>
			<path class="st5" d="M201.1,148.1L94.6,184.7c-1.7,0.6-3.5-0.3-4.1-2l1.3,3.7c0.6,1.7,2.4,2.6,4.1,2l106.4-36.6
				c1.7-0.6,2.6-2.4,2-4.1l-1.3-3.7C203.6,145.7,202.7,147.6,201.1,148.1z"/>
			<g>
				<path class="st4" d="M191.6,263l-18.9,6.5l20.5,68.4c1.7,5.2,7.3,8,12.4,6.2l6-2.1c5.1-1.8,7.8-7.4,6-12.5L191.6,263z
					 M206.8,337.8c-2.4,0.8-5-0.4-5.8-2.8c-0.8-2.4,0.4-5,2.8-5.8c2.4-0.8,5,0.4,5.8,2.8C210.4,334.4,209.2,337,206.8,337.8z"/>
				<g>
					<g>
						<g>
							
								<rect x="172.7" y="266.2" transform="matrix(0.9457 -0.3252 0.3252 0.9457 -77.1555 73.9638)" class="st5" width="20" height="3.3"/>
						</g>
					</g>
				</g>
				<path class="st6" d="M176.1,268.4l-3.3,1.1l20.5,68.4c1.1,3.4,3.9,5.7,7.1,6.5c-1.5-1.2-2.7-2.8-3.3-4.7
					C197,339.7,177.5,276.7,176.1,268.4z"/>
				<path class="st5" d="M191.6,263l-5,1.7c2.3,4.9,23.2,61,23.2,61c0.8,2.3,0.7,4.7-0.1,6.8c0.5,2.2-0.8,4.5-3,5.2
					c-0.7,0.3-1.5,0.3-2.2,0.2c-0.2,0.1-0.5,0.2-0.7,0.3l-6,2.1c-1,0.4-2.1,0.5-3.1,0.5c2.5,3.2,6.8,4.7,10.8,3.3l6-2.1
					c5.1-1.8,7.8-7.4,6-12.5L191.6,263z"/>
				<path class="st7" d="M217.6,329.6c0,0-1.6-3.9-3.8-9.8l-23.3,8c1.9,6,2.8,10.1,2.8,10.1c1.7,5.2,7.3,8,12.4,6.2l6-2.1
					C216.7,340.3,219.4,334.7,217.6,329.6z M206.8,337.8c-2.4,0.8-5-0.4-5.8-2.8c-0.8-2.4,0.4-5,2.8-5.8c2.4-0.8,5,0.4,5.8,2.8
					C210.4,334.4,209.2,337,206.8,337.8z"/>
				<path class="st9" d="M213.7,319.8l-5,1.7l1.6,4.2c1,2.7,0.7,5.6-0.5,8c0,0.4-0.1,0.8-0.2,1.2c0,0.1,0,0.1-0.1,0.2
					c-0.1,0.4-0.3,0.7-0.6,1.1c0,0,0,0,0,0c-0.2,0.3-0.5,0.6-0.9,0.9c-0.1,0.1-0.1,0.1-0.2,0.2c-0.3,0.2-0.7,0.4-1.1,0.6
					c-0.2,0.1-0.5,0.1-0.7,0.2c-0.2,0-0.4,0-0.6,0.1c-0.4,0.2-0.8,0.4-1.2,0.6l-6.1,2.1c-1,0.3-2,0.5-3.1,0.5
					c2.5,3,6.7,4.3,10.6,2.9l6-2.1c5.1-1.8,7.8-7.4,6-12.5C217.6,329.6,216,325.7,213.7,319.8z"/>
				<path class="st8" d="M198.7,343.9c-0.5-0.8-1-1.7-1.3-2.7l-4.5-14.2l-2.6,0.9c1.9,6,3,10,3,10
					C194.1,340.7,196.2,342.8,198.7,343.9z"/>
			</g>
			<path class="st4" d="M190.7,248.7l-2,0.7c-0.3,0.1-0.4,0.3-0.4,0.6l0.2,4.1c0.1,1.9-1.1,3.6-2.9,4.2l-5.6,1.9l-5.6,1.9
				c-1.8,0.6-3.7,0-4.8-1.5l-2.4-3.3c-0.2-0.2-0.4-0.3-0.7-0.2l-2,0.7c-0.4,0.1-0.5,0.6-0.3,1l8.4,10.9l9.4-3.2l9.4-3.2l-0.1-13.8
				C191.6,248.8,191.1,248.5,190.7,248.7z"/>
			<g>
				<g>
					<g>
						<path class="st6" d="M169.7,260.5l-2.4-3.3c-0.2-0.2-0.4-0.3-0.7-0.2l-2,0.7c-0.4,0.1-0.5,0.6-0.3,1l8.4,10.9l3.3-1.1
							l-5.2-6.7C170.4,261.3,170,261,169.7,260.5z"/>
					</g>
				</g>
			</g>
			<g>
				<g>
					<g>
						<path class="st5" d="M190.7,248.7l-2,0.7c-0.3,0.1-0.4,0.3-0.4,0.6l0.2,4.1c0.1,1.5-0.7,2.9-1.9,3.7l0,7l5-1.7l-0.1-13.8
							C191.6,248.8,191.1,248.5,190.7,248.7z"/>
					</g>
				</g>
			</g>
		</g>
		<g>
			
				<rect x="237.6" y="384.2" transform="matrix(0.3137 -0.9495 0.9495 0.3137 -210.8706 497.331)" class="st1" width="2" height="20.8"/>
			
				<rect x="228" y="391.1" transform="matrix(0.3136 -0.9495 0.9495 0.3136 -214.4484 486.0464)" class="st3" width="2" height="0.5"/>
			
				<rect x="238.5" y="383.5" transform="matrix(0.3137 -0.9495 0.9495 0.3137 -210.0817 497.0652)" class="st3" width="0.5" height="20.8"/>
			<polygon class="st2" points="248.3,398.3 248.1,398.7 228.4,392.2 229.1,391.9 			"/>
			<polygon class="st1" points="249.8,398.2 248.1,398.7 248.8,396.9 			"/>
			<polygon class="st2" points="249.8,398.2 248.1,398.7 248.3,398.3 			"/>
			<polygon class="st3" points="249.8,398.2 248.6,397.4 248.8,396.9 			"/>
			<path class="st1" d="M228.4,387.9l-2,5.9c-0.1,0.2,0,0.3,0.2,0.4l0.7,0.2c0.2,0.1,0.3,0,0.4-0.2l2-5.9c0.1-0.2,0-0.3-0.2-0.4
				l-0.7-0.2C228.7,387.6,228.5,387.7,228.4,387.9z"/>
			<path class="st2" d="M228.4,388.1l-1.8,5.6c-0.1,0.3,0.1,0.6,0.3,0.6l0.2,0.1c-0.3-0.1-0.4-0.4-0.3-0.6l1.8-5.6
				c0.1-0.3,0.4-0.4,0.6-0.3l-0.2-0.1C228.7,387.7,228.5,387.8,228.4,388.1z"/>
			<path class="st3" d="M229.2,388.3l-1.8,5.6c-0.1,0.2-0.3,0.4-0.6,0.3c0,0,0,0,0.1,0l0.3,0.1c0.3,0.1,0.6-0.1,0.6-0.3l1.8-5.6
				c0.1-0.3-0.1-0.6-0.3-0.6l-0.3-0.1c0,0-0.1,0-0.1,0C229.2,387.8,229.3,388.1,229.2,388.3z"/>
		</g>
		<g>
			
				<rect x="190.1" y="386" transform="matrix(0.1302 0.9915 -0.9915 0.1302 556.8019 153.5971)" class="st1" width="1.5" height="16.3"/>
			
				<rect x="198.5" y="392.3" transform="matrix(0.9915 -0.1302 0.1302 0.9915 -49.476 29.2124)" class="st3" width="0.4" height="1.5"/>
			
				<rect x="190.7" y="386.5" transform="matrix(0.1301 0.9915 -0.9915 0.1301 557.4359 154.0415)" class="st3" width="0.4" height="16.3"/>
			<polygon class="st2" points="182.7,394.8 182.7,394.4 198.8,392.3 198.5,392.7 			"/>
			<polygon class="st1" points="181.7,395.3 182.7,394.4 182.9,396 			"/>
			<polygon class="st2" points="181.7,395.3 182.7,394.4 182.7,394.8 			"/>
			<polygon class="st3" points="181.7,395.3 182.8,395.5 182.9,396 			"/>
			<path class="st1" d="M200.3,395.4l-0.6-4.9c0-0.1-0.1-0.2-0.3-0.2l-0.6,0.1c-0.1,0-0.2,0.1-0.2,0.3l0.6,4.9
				c0,0.1,0.1,0.2,0.3,0.2l0.6-0.1C200.2,395.6,200.3,395.5,200.3,395.4z"/>
			<path class="st2" d="M200.3,395.2l-0.6-4.6c0-0.2-0.2-0.4-0.4-0.3l-0.2,0c0.2,0,0.4,0.1,0.4,0.3l0.6,4.6c0,0.2-0.1,0.4-0.3,0.4
				l0.2,0C200.2,395.6,200.3,395.4,200.3,395.2z"/>
			<path class="st3" d="M199.6,395.3l-0.6-4.6c0-0.2,0.1-0.4,0.3-0.4c0,0,0,0-0.1,0l-0.3,0c-0.2,0-0.4,0.2-0.3,0.4l0.6,4.6
				c0,0.2,0.2,0.4,0.4,0.3l0.3,0c0,0,0,0,0.1,0C199.8,395.6,199.7,395.5,199.6,395.3z"/>
		</g>
		<g>
			<polygon class="st1" points="287.4,382.1 268.7,391.1 267.8,392.6 269.5,392.8 288.2,383.9 			"/>
			<g>
				
					<rect x="287.3" y="382.1" transform="matrix(0.902 -0.4317 0.4317 0.902 -137.2037 161.6762)" class="st3" width="0.5" height="2"/>
				
					<rect x="278.5" y="377.7" transform="matrix(0.4317 0.902 -0.902 0.4317 508.5159 -30.8752)" class="st3" width="0.5" height="20.8"/>
				<polygon class="st2" points="268.9,391.5 268.7,391.1 287.4,382.1 287.1,382.7 				"/>
				<polygon class="st2" points="267.8,392.6 268.7,391.1 268.9,391.5 				"/>
				<polygon class="st3" points="267.8,392.6 269.3,392.4 269.5,392.8 				"/>
			</g>
			<path class="st3" d="M287,384.9C287,384.8,287,384.8,287,384.9l0-3c0-0.1,0.1-0.2,0.2-0.2c0.1,0,0.2,0.1,0.2,0.2l0,3
				c0,0.1-0.1,0.2-0.2,0.2C287.1,385,287,384.9,287,384.9z M286,385.5c0.1,0,0.2-0.1,0.2-0.2l0-3c0-0.1-0.1-0.2-0.2-0.2
				c-0.1,0-0.2,0.1-0.2,0.2l0,3c0,0,0,0.1,0,0.1C285.9,385.5,285.9,385.5,286,385.5z M284.8,386.1c0.1,0,0.2-0.1,0.2-0.2l0-3
				c0-0.1-0.1-0.2-0.2-0.2c-0.1,0-0.2,0.1-0.2,0.2l0,3c0,0,0,0.1,0,0.1C284.7,386,284.8,386.1,284.8,386.1z M283.7,386.6
				c0.1,0,0.2-0.1,0.2-0.2l0-3c0-0.1-0.1-0.2-0.2-0.2c-0.1,0-0.2,0.1-0.2,0.2l0,3c0,0,0,0.1,0,0.1
				C283.6,386.6,283.6,386.6,283.7,386.6z M282.5,387.2c0.1,0,0.2-0.1,0.2-0.2l0-3c0-0.1-0.1-0.2-0.2-0.2c-0.1,0-0.2,0.1-0.2,0.2
				l0,3c0,0,0,0.1,0,0.1C282.4,387.1,282.5,387.2,282.5,387.2z M281.4,387.7c0.1,0,0.2-0.1,0.2-0.2l0-3c0-0.1-0.1-0.2-0.2-0.2
				c-0.1,0-0.2,0.1-0.2,0.2l0,3c0,0,0,0.1,0,0.1C281.3,387.7,281.3,387.7,281.4,387.7z M280.2,388.3c0.1,0,0.2-0.1,0.2-0.2l0-3
				c0-0.1-0.1-0.2-0.2-0.2c-0.1,0-0.2,0.1-0.2,0.2l0,3c0,0,0,0.1,0,0.1C280.1,388.2,280.2,388.3,280.2,388.3z M279.1,388.8
				c0.1,0,0.2-0.1,0.2-0.2l0-3c0-0.1-0.1-0.2-0.2-0.2c-0.1,0-0.2,0.1-0.2,0.2l0,3c0,0,0,0.1,0,0.1
				C278.9,388.8,279,388.8,279.1,388.8z M277.9,389.4c0.1,0,0.2-0.1,0.2-0.2l0-3c0-0.1-0.1-0.2-0.2-0.2c-0.1,0-0.2,0.1-0.2,0.2l0,3
				c0,0,0,0.1,0,0.1C277.8,389.3,277.9,389.4,277.9,389.4z M276.8,389.9c0.1,0,0.2-0.1,0.2-0.2l0-3c0-0.1-0.1-0.2-0.2-0.2
				c-0.1,0-0.2,0.1-0.2,0.2l0,3c0,0,0,0.1,0,0.1C276.6,389.9,276.7,389.9,276.8,389.9z M275.6,390.5c0.1,0,0.2-0.1,0.2-0.2l0-3
				c0-0.1-0.1-0.2-0.2-0.2c-0.1,0-0.2,0.1-0.2,0.2l0,3c0,0,0,0.1,0,0.1C275.5,390.4,275.6,390.5,275.6,390.5z M274.5,391
				c0.1,0,0.2-0.1,0.2-0.2l0-3c0-0.1-0.1-0.2-0.2-0.2c-0.1,0-0.2,0.1-0.2,0.2l0,3c0,0,0,0.1,0,0.1C274.3,391,274.4,391,274.5,391z
				 M273.3,391.6c0.1,0,0.2-0.1,0.2-0.2l0-3c0-0.1-0.1-0.2-0.2-0.2c-0.1,0-0.2,0.1-0.2,0.2l0,3c0,0,0,0.1,0,0.1
				C273.2,391.6,273.2,391.6,273.3,391.6z M272.2,392.1c0.1,0,0.2-0.1,0.2-0.2l0-3c0-0.1-0.1-0.2-0.2-0.2c-0.1,0-0.2,0.1-0.2,0.2
				l0,3c0,0,0,0.1,0,0.1C272,392.1,272.1,392.1,272.2,392.1z M271,392.7c0.1,0,0.2-0.1,0.2-0.2l0-3c0-0.1-0.1-0.2-0.2-0.2
				c-0.1,0-0.2,0.1-0.2,0.2l0,3c0,0,0,0.1,0,0.1C270.9,392.7,270.9,392.7,271,392.7z M269.9,393.2c0.1,0,0.2-0.1,0.2-0.2l0-3
				c0-0.1-0.1-0.2-0.2-0.2c-0.1,0-0.2,0.1-0.2,0.2l0,3c0,0,0,0.1,0,0.1C269.7,393.2,269.8,393.2,269.9,393.2z"/>
			<path class="st1" d="M290.8,385.2l-2.8-6c-0.1-0.2-0.3-0.3-0.5-0.2l-0.8,0.4c-0.2,0.1-0.3,0.3-0.2,0.5l2.8,6
				c0.1,0.2,0.3,0.3,0.5,0.2l0.8-0.4C290.8,385.7,290.9,385.4,290.8,385.2z"/>
			<path class="st2" d="M287.9,379.8l2.5,5.1c0.2,0.4,0,0.8-0.3,1c0,0,0.1,0,0.1,0c0.4-0.2,0.6-0.7,0.4-1.1l-2.5-5.1
				c-0.2-0.4-0.7-0.6-1.1-0.4c0,0-0.1,0.1-0.1,0.1C287.3,379.3,287.7,379.4,287.9,379.8z"/>
			<path class="st3" d="M289.5,385.3l-2.5-5.1c-0.2-0.3-0.1-0.7,0.2-1c-0.1,0-0.2,0-0.3,0.1c-0.4,0.2-0.6,0.7-0.4,1.1l2.5,5.1
				c0.2,0.4,0.7,0.6,1.1,0.4c0.1,0,0.1-0.1,0.2-0.2C290,385.9,289.7,385.7,289.5,385.3z"/>
		</g>
		<g>
			<polygon class="st1" points="279.7,401.9 265.9,400.7 264.9,401.3 265.8,402 279.6,403.3 			"/>
			<g>
				
					<rect x="278.8" y="402.4" transform="matrix(8.905578e-02 -0.996 0.996 8.905578e-02 -146.3713 645.1235)" class="st3" width="1.3" height="0.3"/>
				
					<rect x="272.5" y="395.5" transform="matrix(-8.911056e-02 0.996 -0.996 -8.911056e-02 697.8696 166.6839)" class="st3" width="0.4" height="13.9"/>
				<polygon class="st2" points="265.9,401 265.9,400.7 279.7,401.9 279.4,402.2 				"/>
				<polygon class="st2" points="264.9,401.3 265.9,400.7 265.9,401 				"/>
				<polygon class="st3" points="264.9,401.3 265.8,401.7 265.8,402 				"/>
			</g>
			<path class="st3" d="M278.6,403.4C278.6,403.4,278.6,403.4,278.6,403.4l1-1.7c0-0.1,0.1-0.1,0.2,0c0.1,0,0.1,0.1,0,0.2l-1,1.7
				c0,0.1-0.1,0.1-0.2,0C278.6,403.5,278.6,403.4,278.6,403.4z M277.8,403.4c0.1,0,0.1,0,0.2,0l1-1.7c0-0.1,0-0.1,0-0.2
				c-0.1,0-0.1,0-0.2,0l-1,1.7c0,0,0,0,0,0.1C277.7,403.4,277.7,403.4,277.8,403.4z M276.9,403.4c0.1,0,0.1,0,0.2,0l1-1.7
				c0-0.1,0-0.1,0-0.2c-0.1,0-0.1,0-0.2,0l-1,1.7c0,0,0,0,0,0.1C276.9,403.3,276.9,403.3,276.9,403.4z M276.1,403.3
				c0.1,0,0.1,0,0.2,0l1-1.7c0-0.1,0-0.1,0-0.2c-0.1,0-0.1,0-0.2,0l-1,1.7c0,0,0,0,0,0.1C276,403.2,276,403.3,276.1,403.3z
				 M275.2,403.2c0.1,0,0.1,0,0.2,0l1-1.7c0-0.1,0-0.1,0-0.2c-0.1,0-0.1,0-0.2,0l-1,1.7c0,0,0,0,0,0.1
				C275.1,403.1,275.2,403.2,275.2,403.2z M274.4,403.1c0.1,0,0.1,0,0.2,0l1-1.7c0-0.1,0-0.1,0-0.2c-0.1,0-0.1,0-0.2,0l-1,1.7
				c0,0,0,0,0,0.1C274.3,403.1,274.3,403.1,274.4,403.1z M273.5,403.1c0.1,0,0.1,0,0.2,0l1-1.7c0-0.1,0-0.1,0-0.2
				c-0.1,0-0.1,0-0.2,0l-1,1.7c0,0,0,0,0,0.1C273.4,403,273.5,403,273.5,403.1z M272.7,403c0.1,0,0.1,0,0.2,0l1-1.7
				c0-0.1,0-0.1,0-0.2c-0.1,0-0.1,0-0.2,0l-1,1.7c0,0,0,0,0,0.1C272.6,402.9,272.6,403,272.7,403z M271.8,402.9c0.1,0,0.1,0,0.2,0
				l1-1.7c0-0.1,0-0.1,0-0.2c-0.1,0-0.1,0-0.2,0l-1,1.7c0,0,0,0,0,0.1C271.7,402.8,271.8,402.9,271.8,402.9z M271,402.8
				c0.1,0,0.1,0,0.2,0l1-1.7c0-0.1,0-0.1,0-0.2c-0.1,0-0.1,0-0.2,0l-1,1.7c0,0,0,0,0,0.1C270.9,402.8,270.9,402.8,271,402.8z
				 M270.1,402.7c0.1,0,0.1,0,0.2,0l1-1.7c0-0.1,0-0.1,0-0.2c-0.1,0-0.1,0-0.2,0l-1,1.7c0,0,0,0,0,0.1
				C270,402.7,270.1,402.7,270.1,402.7z M269.3,402.7c0.1,0,0.1,0,0.2,0l1-1.7c0-0.1,0-0.1,0-0.2c-0.1,0-0.1,0-0.2,0l-1,1.7
				c0,0,0,0,0,0.1C269.2,402.6,269.2,402.6,269.3,402.7z M268.4,402.6c0.1,0,0.1,0,0.2,0l1-1.7c0-0.1,0-0.1,0-0.2
				c-0.1,0-0.1,0-0.2,0l-1,1.7c0,0,0,0,0,0.1C268.3,402.5,268.4,402.6,268.4,402.6z M267.5,402.5c0.1,0,0.1,0,0.2,0l1-1.7
				c0-0.1,0-0.1,0-0.2c-0.1,0-0.1,0-0.2,0l-1,1.7c0,0,0,0,0,0.1C267.5,402.4,267.5,402.5,267.5,402.5z M266.7,402.4
				c0.1,0,0.1,0,0.2,0l1-1.7c0-0.1,0-0.1,0-0.2c-0.1,0-0.1,0-0.2,0l-1,1.7c0,0,0,0,0,0.1C266.6,402.4,266.7,402.4,266.7,402.4z
				 M265.8,402.4c0.1,0,0.1,0,0.2,0l1-1.7c0-0.1,0-0.1,0-0.2c-0.1,0-0.1,0-0.2,0l-1,1.7c0,0,0,0,0,0.1
				C265.8,402.3,265.8,402.3,265.8,402.4z"/>
			<path class="st1" d="M280.6,404.9l0.4-4.4c0-0.1-0.1-0.3-0.2-0.3l-0.6-0.1c-0.1,0-0.3,0.1-0.3,0.2l-0.4,4.4
				c0,0.1,0.1,0.3,0.2,0.3l0.6,0.1C280.5,405.2,280.6,405,280.6,404.9z"/>
			<path class="st2" d="M280.8,400.8l-0.3,3.8c0,0.3-0.2,0.5-0.5,0.5c0,0,0.1,0,0.1,0c0.3,0,0.6-0.2,0.6-0.5l0.3-3.8
				c0-0.3-0.2-0.6-0.5-0.6c0,0-0.1,0-0.1,0C280.6,400.3,280.8,400.5,280.8,400.8z"/>
			<path class="st3" d="M279.8,404.5l0.3-3.8c0-0.3,0.2-0.4,0.4-0.5c-0.1,0-0.1,0-0.2,0c-0.3,0-0.6,0.2-0.6,0.5l-0.3,3.8
				c0,0.3,0.2,0.6,0.5,0.6c0.1,0,0.1,0,0.2,0C280,405,279.8,404.8,279.8,404.5z"/>
		</g>
		<g>
			<polygon class="st1" points="218.9,394.1 207.6,402.2 207.2,403.3 208.4,403.3 219.7,395.2 			"/>
			<g>
				
					<rect x="219" y="394.1" transform="matrix(0.8112 -0.5847 0.5847 0.8112 -189.4586 202.6496)" class="st3" width="0.3" height="1.3"/>
				
					<rect x="213.7" y="392.2" transform="matrix(0.5848 0.8112 -0.8112 0.5848 412.5823 -7.8103)" class="st3" width="0.4" height="13.9"/>
				<polygon class="st2" points="207.8,402.5 207.6,402.2 218.9,394.1 218.8,394.6 				"/>
				<polygon class="st2" points="207.2,403.3 207.6,402.2 207.8,402.5 				"/>
				<polygon class="st3" points="207.2,403.3 208.2,403 208.4,403.3 				"/>
			</g>
			<path class="st3" d="M219,396C218.9,396,218.9,396,219,396l-0.4-2c0-0.1,0-0.1,0.1-0.1c0.1,0,0.1,0,0.1,0.1l0.3,1.9
				c0,0.1,0,0.1-0.1,0.1C219,396,219,396,219,396z M218.4,396.5c0.1,0,0.1-0.1,0.1-0.1l-0.3-1.9c0-0.1-0.1-0.1-0.1-0.1
				c-0.1,0-0.1,0.1-0.1,0.1l0.3,1.9c0,0,0,0,0,0.1C218.3,396.5,218.3,396.5,218.4,396.5z M217.7,397c0.1,0,0.1-0.1,0.1-0.1l-0.3-1.9
				c0-0.1-0.1-0.1-0.1-0.1c-0.1,0-0.1,0.1-0.1,0.1l0.3,1.9c0,0,0,0,0,0.1C217.6,397,217.6,397,217.7,397z M217,397.5
				c0.1,0,0.1-0.1,0.1-0.1l-0.3-1.9c0-0.1-0.1-0.1-0.1-0.1c-0.1,0-0.1,0.1-0.1,0.1l0.3,1.9c0,0,0,0,0,0.1
				C216.9,397.5,216.9,397.5,217,397.5z M216.3,398c0.1,0,0.1-0.1,0.1-0.1l-0.3-1.9c0-0.1-0.1-0.1-0.1-0.1c-0.1,0-0.1,0.1-0.1,0.1
				l0.3,1.9c0,0,0,0,0,0.1C216.2,398,216.3,398,216.3,398z M215.6,398.5c0.1,0,0.1-0.1,0.1-0.1l-0.3-1.9c0-0.1-0.1-0.1-0.1-0.1
				c-0.1,0-0.1,0.1-0.1,0.1l0.3,1.9c0,0,0,0,0,0.1C215.5,398.5,215.6,398.5,215.6,398.5z M214.9,399c0.1,0,0.1-0.1,0.1-0.1l-0.3-1.9
				c0-0.1-0.1-0.1-0.1-0.1c-0.1,0-0.1,0.1-0.1,0.1l0.3,1.9c0,0,0,0,0,0.1C214.8,399,214.9,399,214.9,399z M214.2,399.5
				c0.1,0,0.1-0.1,0.1-0.1l-0.3-1.9c0-0.1-0.1-0.1-0.1-0.1c-0.1,0-0.1,0.1-0.1,0.1l0.3,1.9c0,0,0,0,0,0.1
				C214.1,399.5,214.2,399.5,214.2,399.5z M213.5,400c0.1,0,0.1-0.1,0.1-0.1l-0.3-1.9c0-0.1-0.1-0.1-0.1-0.1c-0.1,0-0.1,0.1-0.1,0.1
				l0.3,1.9c0,0,0,0,0,0.1C213.4,400,213.5,400,213.5,400z M212.8,400.5c0.1,0,0.1-0.1,0.1-0.1l-0.3-1.9c0-0.1-0.1-0.1-0.1-0.1
				c-0.1,0-0.1,0.1-0.1,0.1l0.3,1.9c0,0,0,0,0,0.1C212.7,400.5,212.8,400.5,212.8,400.5z M212.1,401c0.1,0,0.1-0.1,0.1-0.1l-0.3-1.9
				c0-0.1-0.1-0.1-0.1-0.1c-0.1,0-0.1,0.1-0.1,0.1l0.3,1.9c0,0,0,0,0,0.1C212,401,212.1,401,212.1,401z M211.4,401.5
				c0.1,0,0.1-0.1,0.1-0.1l-0.3-1.9c0-0.1-0.1-0.1-0.1-0.1c-0.1,0-0.1,0.1-0.1,0.1l0.3,1.9c0,0,0,0,0,0.1
				C211.3,401.5,211.4,401.5,211.4,401.5z M210.8,402c0.1,0,0.1-0.1,0.1-0.1l-0.3-1.9c0-0.1-0.1-0.1-0.1-0.1c-0.1,0-0.1,0.1-0.1,0.1
				l0.3,1.9c0,0,0,0,0,0.1C210.7,402,210.7,402,210.8,402z M210.1,402.5c0.1,0,0.1-0.1,0.1-0.1l-0.3-1.9c0-0.1-0.1-0.1-0.1-0.1
				c-0.1,0-0.1,0.1-0.1,0.1l0.3,1.9c0,0,0,0,0,0.1C210,402.5,210,402.5,210.1,402.5z M209.4,403c0.1,0,0.1-0.1,0.1-0.1l-0.3-1.9
				c0-0.1-0.1-0.1-0.1-0.1c-0.1,0-0.1,0.1-0.1,0.1l0.3,1.9c0,0,0,0,0,0.1C209.3,403,209.3,403,209.4,403z M208.7,403.5
				c0.1,0,0.1-0.1,0.1-0.1l-0.3-1.9c0-0.1-0.1-0.1-0.1-0.1s-0.1,0.1-0.1,0.1l0.3,1.9c0,0,0,0,0,0.1
				C208.6,403.5,208.6,403.5,208.7,403.5z"/>
			<path class="st1" d="M221.5,395.8l-2.6-3.6c-0.1-0.1-0.3-0.1-0.4-0.1l-0.5,0.4c-0.1,0.1-0.1,0.3-0.1,0.4l2.6,3.6
				c0.1,0.1,0.3,0.1,0.4,0.1l0.5-0.4C221.5,396.1,221.6,395.9,221.5,395.8z"/>
			<path class="st2" d="M218.9,392.6l2.2,3.1c0.2,0.2,0.1,0.5-0.1,0.7c0,0,0.1,0,0.1,0c0.3-0.2,0.3-0.5,0.1-0.8l-2.2-3.1
				c-0.2-0.3-0.5-0.3-0.8-0.1c0,0,0,0.1-0.1,0.1C218.5,392.3,218.8,392.3,218.9,392.6z"/>
			<path class="st3" d="M220.7,396l-2.2-3.1c-0.1-0.2-0.1-0.5,0-0.7c-0.1,0-0.1,0-0.2,0.1c-0.3,0.2-0.3,0.5-0.1,0.8l2.2,3.1
				c0.2,0.3,0.5,0.3,0.8,0.1c0,0,0.1-0.1,0.1-0.1C221.1,396.3,220.8,396.2,220.7,396z"/>
		</g>
		<g>
			<rect x="147.4" y="260.3" class="st10" width="205.3" height="96.4"/>
			<rect x="147.4" y="260.3" class="st11" width="24.2" height="96.4"/>
			<rect x="328.2" y="260.3" class="st11" width="24.2" height="96.4"/>
			<rect x="147.4" y="260.3" class="st12" width="205.3" height="5"/>
			<path class="st10" d="M163.5,356.6h-16.1V184.1c0-1.6,1.3-2.8,2.8-2.8h10.5c1.6,0,2.8,1.3,2.8,2.8V356.6z"/>
			<path class="st12" d="M151,182.6c-2.2,1.4-3.7,3.9-3.7,6.8v167.3h4.7V189.3C152.1,186.5,151.7,184,151,182.6z"/>
			<path class="st12" d="M163.5,260.3h-16.1v-76.2c0-1.6,1.3-2.8,2.8-2.8h10.5c1.6,0,2.8,1.3,2.8,2.8V260.3z"/>
			<path class="st10" d="M352.6,356.6h-16.1V184.1c0-1.6,1.3-2.8,2.8-2.8h10.5c1.6,0,2.8,1.3,2.8,2.8V356.6z"/>
			<g>
				<path class="st11" d="M205.6,318.9c-2.2-2.5-3.6-5.7-3.6-9.3c0-7.7,6.3-14,14-14h70.2c3.6,0,6.8,1.4,9.3,3.6
					c-2.6-2.9-6.3-4.7-10.4-4.7h-70.2c-7.7,0-14,6.3-14,14C200.9,312.6,202.7,316.3,205.6,318.9z"/>
				<path class="st11" d="M297.6,297.1c2.7,3,4.4,6.9,4.4,11.3c0,9.3-7.6,16.8-16.9,16.8h-70.2c-4.3,0-8.3-1.7-11.3-4.4
					c3.1,3.4,7.5,5.6,12.5,5.6h70.2c9.3,0,16.9-7.6,16.9-16.8C303.1,304.7,301,300.2,297.6,297.1z"/>
			</g>
			<g>
				<path class="st12" d="M214.9,322.4h70.2c7.7,0,14-6.3,14-14c0-4.2-1.9-8-4.9-10.6c2.1,2.5,3.4,5.6,3.4,9.1c0,7.7-6.3,14-14,14
					h-70.2c-3.5,0-6.6-1.3-9.1-3.4C206.9,320.5,210.6,322.4,214.9,322.4z"/>
				<path class="st12" d="M198,308.4c0-9.3,7.6-16.8,16.8-16.8h70.2c4.3,0,8.2,1.6,11.1,4.2c-3.1-3.5-7.6-5.7-12.6-5.7h-70.2
					c-9.3,0-16.8,7.6-16.8,16.8c0,5,2.2,9.5,5.7,12.6C199.6,316.6,198,312.7,198,308.4z"/>
			</g>
			<rect x="147.4" y="256.3" class="st10" width="16.1" height="3.9"/>
			<path class="st12" d="M349,182.6c2.2,1.4,3.7,3.9,3.7,6.8v167.3h-4.7V189.3C347.9,186.5,348.3,184,349,182.6z"/>
			<path class="st12" d="M336.5,260.3h16.1v-76.2c0-1.6-1.3-2.8-2.8-2.8h-10.5c-1.6,0-2.8,1.3-2.8,2.8V260.3z"/>
			
				<rect x="336.5" y="256.3" transform="matrix(-1 -1.224647e-16 1.224647e-16 -1 689.1459 516.6114)" class="st10" width="16.1" height="3.9"/>
			<path class="st11" d="M269.7,260.3c-0.9,1.1-1.8,2.2-2.7,3.3c-1.7,2.1-3.5,4.3-5.2,6.8c-0.4,0.6-0.8,1.3-1.2,1.9
				c-0.4,0.7-0.8,1.4-1.1,2c-0.7,1.3-1.3,2.6-1.9,3.9c-2.4,5.1-4.4,10.3-6.2,15.6c-1.8,5.3-3.3,10.7-4.4,16.4c0,0.1,0,0.2,0,0.2
				c-0.4,2.8,1.5,5.3,4.2,5.7c2.8,0.4,5.3-1.5,5.7-4.2l0,0c0.8-5.1,2-10.2,3.4-15.3c1.5-5.1,3.2-10.1,5.1-15c0.5-1.2,1-2.4,1.5-3.6
				c0.3-0.6,0.5-1.1,0.8-1.6c0.3-0.5,0.6-1,0.9-1.6c1.3-2.1,2.9-4.2,4.5-6.4c2-2.6,4-5.3,6-8.2H269.7z"/>
			<path class="st10" d="M350.1,181.2h-11c-1.4,0-2.6,1.2-2.6,2.6v63c2.7,2,5.5,4.2,8.5,6.6l7.6,6.2v-75.9
				C352.6,182.4,351.5,181.2,350.1,181.2z"/>
		</g>
		<g>
			<path class="st7" d="M364.2,247.2l-9.3,3.8c-1.1,0.5-1.7,1.8-1.2,2.9l15,36.5c0.5,1.1,1.8,1.7,2.9,1.2l9.3-3.8
				c1.1-0.5,1.7-1.8,1.2-2.9l-15-36.5C366.7,247.3,365.4,246.7,364.2,247.2z M380.5,285.7l-10,4.1l-1-2.4l10-4.1L380.5,285.7z
				 M378.7,281.5l-10,4.1l-1-2.4l10-4.1L378.7,281.5z M377,277.2l-10,4.1l-1-2.4l10-4.1L377,277.2z M375.2,272.9l-10,4.1l-1-2.4
				l10-4.1L375.2,272.9z M373.5,268.6l-10,4.1l-1-2.4l10-4.1L373.5,268.6z M371.7,264.3l-10,4.1l-1-2.4l10-4.1L371.7,264.3z
				 M369.9,260.1l-10,4.1l-1-2.4l10-4.1L369.9,260.1z M368.2,255.8l-10,4.1l-1-2.4l10-4.1L368.2,255.8z M366.4,251.5l-10,4.1l-1-2.4
				l10-4.1L366.4,251.5z"/>
			<g>
				<path class="st9" d="M381.8,286l-9.3,3.8c-0.6,0.2-1.3,0.2-1.8-0.1l-0.2,0.1l-0.1-0.3c-0.3-0.2-0.6-0.5-0.8-0.9l-15-36.5
					c-0.1-0.2-0.1-0.4-0.1-0.6c-0.7,0.6-1.1,1.6-0.7,2.6l15,36.5c0.5,1.1,1.8,1.7,2.9,1.2l9.3-3.8c0.9-0.4,1.4-1.3,1.3-2.3
					C382.2,285.8,382,285.9,381.8,286z"/>
			</g>
			<path class="st7" d="M357.2,264.9l-15-12.3c-0.5-0.4-0.6-1.1-0.2-1.6l5.6-6.9c0.4-0.5,1.1-0.6,1.6-0.2l15,12.3
				c0.5,0.4,0.6,1.1,0.2,1.6l-5.6,6.9C358.5,265.2,357.7,265.3,357.2,264.9z"/>
			<path class="st9" d="M347.2,244.7l-3.5,4.3l16.8,13.7l3.5-4.3c0.1-0.2,0.2-0.4,0.3-0.6l-16.6-13.6
				C347.5,244.3,347.3,244.5,347.2,244.7z"/>
			<path class="st4" d="M345.9,139.9l11.5-5.6c4-2,8.7-1.8,12.6,0.4c39.2,23.1,66.5,64.8,35.4,107.1L345.9,139.9z"/>
			<path class="st6" d="M357.8,138.1c4-2,8.7-1.8,12.6,0.4c24.9,14.6,44.9,36.7,48.3,61.7c-1.8-26.6-22.6-50.2-48.7-65.6
				c-3.8-2.3-8.6-2.4-12.6-0.4l-11.5,5.6l1.9,3.2L357.8,138.1z"/>
			<path class="st4" d="M391.8,274.2c1.2-6.3,3.9-16,9.4-25.7c0.7-1.3,1.6-2.5,2.6-3.7l0.1-0.2c20.4-25,12-65.5-18.8-90.6
				c-27-22-62.2-24.7-84.2-8.2c-1.1,0.9-2.3,1.7-3.4,2.5c-13.1,8.7-26,18.7-46.9,14c-3.7-0.8-6.4,3.4-4.1,6.4
				c4.9,6.1,13.9,15.4,30.7,29.1c35.3,28.8,45,27.8,72.8,50.5l34.7,28.3C387.3,278.8,391.2,277.4,391.8,274.2z"/>
			<path class="st5" d="M282.5,191.4c35.3,28.8,45,27.8,72.8,50.5l34.7,28.3c0.7,0.6,1.5,0.9,2.4,1c0.8-3.5,2-7.6,3.7-12
				c-10.2-8.3-27.4-22.4-56.5-46.1c-43.1-35.1-53.2-50.2-55.3-56.3c-8.9,5-18.9,8.4-32.1,5.9C257.1,168.8,266.1,178,282.5,191.4z"/>
			<path class="st4" d="M391.8,274.2c0.4-1.9,0.9-4.1,1.6-6.6c-9.8-8-27.4-22.4-59-48.1c-63.1-51.5-55.6-60-55.6-60h0
				c-7.9,3.5-16.9,5.3-28.2,2.8c-3.7-0.8-6.4,3.4-4,6.4c4.9,6.1,13.9,15.4,30.7,29.1c35.3,28.8,45,27.8,72.8,50.5l34.7,28.3
				C387.3,278.8,391.2,277.4,391.8,274.2z"/>
			<g>
				<g>
					<path class="st5" d="M391.8,274.2c1.2-6.3,3.9-16,9.4-25.7c0.7-1.3,1.6-2.5,2.6-3.7l0.1-0.2c20.4-25,12-65.5-18.8-90.6
						c-3-2.5-6.2-4.7-9.4-6.7c28.4,25.2,35.7,64,16,88.2l-0.1,0.2c-0.9,1.2-1.8,2.4-2.6,3.7c-5.5,9.7-20.4,16.2-24.6,17.9
						c-2.2,0.9,12.5,11.5,10.4,11.3l10,8.1C387.3,278.8,391.2,277.4,391.8,274.2z"/>
				</g>
			</g>
			<path class="st6" d="M251,165.6c20.9,4.6,33.8-5.4,46.9-14c1.2-0.8,2.3-1.6,3.4-2.5c22-16.6,57.2-13.8,84.2,8.2
				c16.9,13.8,27.1,32.3,29.4,50.4c-1.4-19-11.7-38.9-29.7-53.6c-27-22-62.2-24.7-84.2-8.2c-1.1,0.9-2.3,1.7-3.4,2.5
				c-13.1,8.7-26,18.7-46.9,14c-3.5-0.8-6.1,3-4.4,5.9C246.9,166.5,248.7,165.1,251,165.6z"/>
			<path class="st5" d="M392,273.4c-1.3,0.3-2.6,0.1-3.8-0.9l-34.7-28.3c-27.8-22.7-37.5-21.7-72.8-50.5
				c-16.8-13.7-25.8-23.1-30.7-29.1c-0.6-0.7-0.8-1.5-0.9-2.3c-2.8,0.4-4.5,3.9-2.5,6.4c4.9,6.1,13.9,15.4,30.7,29.1
				c35.3,28.8,45,27.8,72.8,50.5l34.7,28.3c2.5,2.1,6.4,0.7,7-2.5C391.9,273.9,391.9,273.7,392,273.4z"/>
			<path class="st4" d="M315.1,209.1l-11.9-9.7c-1.1-0.9-1.2-2.6-0.2-3.7l8.5-8.4c0.9-0.9,2.3-1,3.3-0.2l9.9,8.1
				c1,0.8,1.2,2.2,0.5,3.3l-6.5,10C317.9,209.8,316.2,210.1,315.1,209.1z"/>
			<path class="st5" d="M325.2,198.6c0.7-1.1,0.5-2.5-0.5-3.3l-0.2-0.1l-6.2,9.5c-0.8,1.2-2.5,1.5-3.6,0.6l-11.6-9.5l0,0
				c-1,1-1,2.8,0.2,3.7l11.9,9.7c1.1,0.9,2.8,0.7,3.6-0.6L325.2,198.6z"/>
			<path class="st6" d="M303.2,197.7l8.5-8.4c0.9-0.9,2.3-1,3.3-0.2l9.9,8.1c0.2,0.2,0.4,0.4,0.6,0.7c0.3-0.9,0-2-0.8-2.7l-9.9-8.1
				c-1-0.8-2.4-0.7-3.3,0.2l-8.5,8.4c-0.8,0.8-0.9,2-0.4,3C302.7,198.4,302.9,198,303.2,197.7z"/>
			<path class="st4" d="M382.1,263.8l-11.9-9.7c-1.1-0.9-1.2-2.6-0.2-3.7l8.5-8.4c0.9-0.9,2.3-1,3.3-0.2l9.9,8.1
				c1,0.8,1.2,2.2,0.5,3.3l-6.5,10C384.9,264.5,383.2,264.7,382.1,263.8z"/>
			<path class="st4" d="M349.4,145.4l-0.9,3.9c-0.6,2.8,0.9,5.7,3.6,6.8c16.6,6.5,42.5,23.9,53.2,52.7c0.4,1.2,2.2,0.8,2.1-0.5
				c-2-18.3-15-47.6-54.5-64.8C351.5,142.9,349.8,143.8,349.4,145.4z"/>
			<path class="st5" d="M407.4,208c-10.1-29.1-35.6-46.9-52.1-53.8c-2.7-1.1-4.1-4.1-3.4-6.9l0.9-3.8c-1.4-0.6-3.1,0.3-3.4,1.8
				l-0.9,3.9c-0.6,2.8,0.9,5.7,3.6,6.8c16.6,6.5,42.5,23.9,53.2,52.7c0.4,1.2,2.2,0.8,2.1-0.5C407.4,208.3,407.4,208.1,407.4,208z"
				/>
			<path class="st5" d="M315.1,215.8c-4.9-4.3-11.8-8.5-16.5-13c-4.8-4.5-9.5-9.1-14-13.8c-4.5-4.7-8.9-9.5-13.1-14.5
				c-3-3.6-5.9-7.3-8.6-11.1c-2.5,0.1-5.2,0-8-0.4c0,0.3,0,0.7,0.3,1c3.8,5,8,9.7,12.2,14.1c4.6,4.8,9.4,9.4,14.3,13.8
				c4.9,4.5,9.9,8.7,15,12.9C301.8,209.2,315.1,215.8,315.1,215.8z"/>
			<path class="st5" d="M392.3,253.2c0.7-1.1,0.5-2.5-0.5-3.3l-0.2-0.1l-6.2,9.5c-0.8,1.2-2.5,1.5-3.6,0.6l-11.6-9.5l0,0
				c-1,1-1,2.8,0.2,3.7l11.9,9.7c1.1,0.9,2.8,0.7,3.6-0.6L392.3,253.2z"/>
			<path class="st6" d="M370.3,252.4l8.5-8.4c0.9-0.9,2.3-1,3.3-0.2l9.9,8.1c0.2,0.2,0.4,0.4,0.6,0.7c0.3-0.9,0-2-0.8-2.7l-9.9-8.1
				c-1-0.8-2.4-0.7-3.3,0.2l-8.5,8.4c-0.8,0.8-0.9,2-0.4,3C369.8,253,370,252.7,370.3,252.4z"/>
			<path class="st4" d="M259.1,160.8c1.5-1,3.5-0.7,4.6,0.8c3,4.4,6.3,8.6,9.8,12.7c4.2,5,8.6,9.8,13.1,14.5
				c4.5,4.7,9.2,9.3,14,13.8c4.8,4.5,9.7,8.9,14.6,13.2c0,0-11.4-6.9-16.5-11.1c-5.1-4.2-10.1-8.5-15-12.9c-4.9-4.4-9.7-9-14.3-13.8
				c-4.3-4.5-8.4-9.1-12.2-14.1c-0.5-0.6-0.3-1.5,0.3-1.9L259.1,160.8z"/>
			<path class="st6" d="M258.2,161.9c1.5-1,3.5-0.7,4.6,0.8c3,4.4,6.3,8.6,9.8,12.7c4.2,5,8.6,9.8,13.1,14.5
				c4.5,4.7,9.2,9.3,14,13.8c2.8,2.6,5.6,5.2,8.4,7.7c3.8,2.5,7,4.4,7,4.4c-4.9-4.3-9.8-8.7-14.6-13.2c-4.8-4.5-9.5-9.1-14-13.8
				c-4.5-4.7-8.9-9.5-13.1-14.5c-3.5-4.1-6.8-8.4-9.8-12.7c-1-1.5-3.1-1.8-4.6-0.8l-1.7,1.2c-0.3,0.2-0.5,0.5-0.5,0.8L258.2,161.9z"
				/>
			<path class="st6" d="M352.1,144.6c39.5,17.2,52.5,46.5,54.5,64.8c0,0,0,0.1,0,0.1c0.5-0.1,1-0.5,0.9-1.2
				c-2-18.3-15-47.6-54.5-64.8c-1.3-0.6-2.8,0.1-3.3,1.3C350.3,144.4,351.2,144.3,352.1,144.6z"/>
			
				<ellipse transform="matrix(0.9639 -0.2664 0.2664 0.9639 -28.3236 92.3023)" class="st6" cx="326" cy="150.5" rx="13.5" ry="6.8"/>
		</g>
		<g>
			<g>
				<path class="st4" d="M279.7,251.3c-2.8,5.3-6.3,9.7-9.5,14c-1.6,2.2-3.2,4.3-4.5,6.4c-0.3,0.5-0.6,1.1-0.9,1.6
					c-0.3,0.5-0.5,1-0.8,1.6c-0.5,1.1-1,2.3-1.5,3.6c-2,4.9-3.7,9.9-5.1,15c-1.5,5.1-2.6,10.2-3.4,15.3l0,0c-0.4,2.8-3,4.7-5.7,4.2
					c-2.8-0.4-4.7-3-4.2-5.7c0-0.1,0-0.2,0-0.2c1.1-5.6,2.6-11.1,4.4-16.4c1.8-5.3,3.8-10.5,6.2-15.6c0.6-1.3,1.2-2.6,1.9-3.9
					c0.3-0.6,0.7-1.4,1.1-2c0.4-0.6,0.8-1.3,1.2-1.9c1.7-2.5,3.4-4.6,5.2-6.8c3.5-4.2,6.9-8.3,9.4-12.6l0,0c1-1.7,3.2-2.3,5-1.3
					C280,247.5,280.6,249.6,279.7,251.3z"/>
				<path class="st6" d="M245.9,307.5c0-0.1,0-0.2,0-0.2c1.1-5.6,2.6-11.1,4.4-16.4c1.8-5.3,3.8-10.5,6.2-15.6
					c0.6-1.3,1.2-2.6,1.9-3.9c0.3-0.6,0.7-1.4,1.1-2c0.4-0.6,0.8-1.3,1.2-1.9c1.7-2.5,3.4-4.6,5.2-6.8c3.5-4.2,6.9-8.3,9.4-12.6l0,0
					c0.6-1,1.6-1.7,2.8-1.8c-1.7-0.8-3.7-0.2-4.7,1.5l0,0c-2.5,4.3-5.9,8.3-9.4,12.6c-1.7,2.1-3.5,4.3-5.2,6.8
					c-0.4,0.6-0.8,1.3-1.2,1.9c-0.4,0.7-0.8,1.4-1.1,2c-0.7,1.3-1.3,2.6-1.9,3.9c-2.4,5.1-4.4,10.3-6.2,15.6
					c-1.8,5.3-3.3,10.7-4.4,16.4c0,0.1,0,0.2,0,0.2c-0.4,2.8,1.5,5.3,4.2,5.7c0.3,0,0.6,0,0.9,0
					C246.9,312.2,245.5,309.9,245.9,307.5z"/>
				<path class="st5" d="M278.3,246.5c-0.1,0-0.2-0.1-0.2-0.1c0.1,0.7,0,1.4-0.4,2.1c-2.8,5.3-6.3,9.7-9.5,14
					c-1.6,2.2-3.2,4.3-4.5,6.4c-0.3,0.5-0.6,1.1-0.9,1.6c-0.3,0.5-0.5,1-0.8,1.6c-0.5,1.1-1,2.3-1.5,3.6c-2,4.9-3.7,9.9-5.1,15
					c-1.5,5.1-2.6,10.2-3.4,15.3l0,0c-0.4,2.8-3,4.7-5.7,4.2c-0.8-0.1-1.5-0.4-2.1-0.9c0.5,1.9,2.1,3.4,4.1,3.7
					c2.8,0.4,5.3-1.5,5.7-4.2l0,0c0.8-5.1,2-10.2,3.4-15.3c1.5-5.1,3.2-10.1,5.1-15c0.5-1.2,1-2.4,1.5-3.6c0.3-0.6,0.5-1.1,0.8-1.6
					c0.3-0.5,0.6-1,0.9-1.6c1.3-2.1,2.9-4.2,4.5-6.4c3.2-4.3,6.7-8.7,9.5-14C280.6,249.6,280,247.5,278.3,246.5z"/>
				<path class="st1" d="M278.3,246.5c-1.7-1-4-0.4-5,1.3l0,0c-2,3.5-4.7,6.8-7.4,10.2l8.6,1.5c1.8-2.5,3.6-5.2,5.2-8.2
					C280.6,249.6,280,247.5,278.3,246.5z"/>
				<path class="st2" d="M275.3,248.2L275.3,248.2c0.6-1.1,1.7-1.7,2.8-1.8c-1.7-0.8-3.7-0.2-4.7,1.5l0,0c-2,3.5-4.7,6.8-7.4,10.2
					l1.9,0.3C270.6,255,273.2,251.7,275.3,248.2z"/>
				<g>
					<path class="st3" d="M274.7,246.5c-0.1,0.1-0.3,0.1-0.4,0.2C274.4,246.7,274.5,246.6,274.7,246.5z"/>
					<path class="st3" d="M275.5,246.2c0.2-0.1,0.4-0.1,0.6-0.1C275.9,246.1,275.7,246.1,275.5,246.2z"/>
					<path class="st3" d="M278.1,246.4c-0.6-0.3-1.3-0.4-2-0.3C276.8,246,277.5,246.1,278.1,246.4z"/>
					<path class="st3" d="M278.3,246.5c-0.1,0-0.2-0.1-0.2-0.1c0.1,0.7,0,1.4-0.4,2.1c-2,3.8-4.4,7.2-6.8,10.4l3.7,0.6
						c1.8-2.5,3.6-5.2,5.2-8.2C280.6,249.6,280,247.5,278.3,246.5z"/>
					<path class="st3" d="M274.9,246.4c0.2-0.1,0.3-0.1,0.5-0.2C275.2,246.3,275,246.3,274.9,246.4z"/>
					<path class="st3" d="M273.8,247.2c0.1-0.1,0.1-0.1,0.2-0.2C273.9,247.1,273.9,247.2,273.8,247.2z"/>
				</g>
				<path class="st3" d="M278.3,246.5c-1.7-1-4-0.4-5,1.3l0,0c-0.7,1.2-1.5,2.3-2.3,3.5c0.3,2.8,2,5.3,4.4,6.8
					c1.5-2.1,2.9-4.4,4.2-6.8C280.6,249.6,280,247.5,278.3,246.5z"/>
				<path class="st7" d="M245.3,301.4c-0.5,1.8-0.9,3.7-1.3,5.6c0,0.1,0,0.2,0,0.2c-0.4,2.8,1.5,5.3,4.2,5.7
					c2.8,0.4,5.3-1.5,5.7-4.2l0,0c0.3-1.9,0.6-3.8,1-5.6L245.3,301.4z"/>
				<g>
					<path class="st9" d="M244,307.2c-0.1,0.4-0.1,0.7,0,1C243.9,307.9,243.9,307.6,244,307.2z"/>
					<path class="st9" d="M255,303l-2.5-0.4c-0.2,1.1-0.4,2.1-0.5,3.2l0,0c-0.4,2.8-3,4.7-5.7,4.2c-0.8-0.1-1.5-0.4-2.1-0.9
						c-0.1-0.3-0.1-0.6-0.2-1c0.1,2.3,1.9,4.3,4.3,4.7c2.8,0.4,5.3-1.5,5.7-4.2l0,0C254.2,306.8,254.6,304.9,255,303z"/>
				</g>
				<path class="st8" d="M245.8,307.5c0-0.1,0-0.2,0-0.2c0.4-1.9,0.8-3.8,1.3-5.6l-1.9-0.3c-0.5,1.8-0.9,3.7-1.3,5.6
					c0,0.1,0,0.2,0,0.2c-0.4,2.8,1.5,5.3,4.2,5.7c0.3,0,0.6,0,0.8,0C246.9,312.2,245.5,309.9,245.8,307.5z"/>
			</g>
			<g>
				<g>
					<path class="st1" d="M276.6,239.9c0-0.4,0-0.9,0-1.3c0-0.6,0.4-1,0.9-1.1c0,0,0,0,0,0c0.5,0,0.9-0.5,0.9-1.1c0-0.6,0-1.1,0-1.7
						c0-0.6-0.4-1.1-0.9-1.2l0,0c-0.5-0.1-0.9-0.6-0.9-1.2c0.1-1.1,0.2-2.2,0.3-3.3c0.1-0.6,0.6-1,1.1-1l0,0c0.6,0,1.1-0.5,1.2-1
						c0.3-1.4,0.6-2.7,1-4.1c0.2-0.7-0.5-1.2-1.3-1.1c-1.4,0.3-2.7,0.6-3.9,0.9c-0.4,0.1-0.8,0.4-0.9,0.8
						c-2.3,7.5-3.1,15.1-4.6,22.6c-0.1,0.5,0.2,1.1,0.8,1.2c3.1,1,6.3,1.9,9.7,2.9c-0.7-2.7-1.2-5.4-1.4-8.1
						c-0.1-0.6-0.5-1.1-1.1-1.2c0,0,0,0,0,0C277,240.9,276.6,240.4,276.6,239.9z"/>
				</g>
				<g>
					<path class="st3" d="M271.3,247.7c2.8,0.9,5.7,1.7,8.8,2.6c-0.7-2.6-1.1-5.3-1.4-7.9C275.2,242.2,272.3,244.4,271.3,247.7z"/>
				</g>
				<g>
					<path class="st2" d="M278.1,228.1L278.1,228.1c0.6,0,1.1-0.5,1.2-1c0.3-1.4,0.6-2.7,1-4.1c0.2-0.7-0.4-1.2-1.3-1.1
						c0.5,0.1,0.7,0.5,0.6,1c-0.4,1.4-0.7,2.7-0.9,4.1c-0.1,0.6-0.6,1-1.2,1c-0.6,0-1.1,0.5-1.1,1c-0.1,1.1-0.2,2.2-0.3,3.3
						c0,0.6,0.4,1.1,0.9,1.2c0.5,0.1,0.9,0.6,0.9,1.2c0,0.6,0,1.1,0,1.7c0,0.6-0.4,1-0.9,1.1c0,0,0,0,0,0c-0.5,0-0.9,0.5-0.9,1.1
						c0,0.4,0,0.9,0,1.3c0,0.6,0.5,1.1,1,1.2c0,0,0,0,0,0c0.5,0.1,1,0.6,1.1,1.2c0.2,2.7,0.7,5.3,1.3,7.9c0.2,0.1,0.5,0.1,0.7,0.2
						c-0.7-2.7-1.2-5.4-1.4-8.1c-0.1-0.6-0.5-1.1-1.1-1.2c0,0,0,0,0,0c-0.6-0.1-1-0.6-1-1.2c0-0.4,0-0.9,0-1.3c0-0.6,0.4-1,0.9-1.1
						c0,0,0,0,0,0c0.5,0,0.9-0.5,0.9-1.1c0-0.6,0-1.1,0-1.7c0-0.6-0.4-1.1-0.9-1.2l0,0c-0.5-0.1-0.9-0.6-0.9-1.2
						c0.1-1.1,0.2-2.2,0.3-3.3C277,228.6,277.5,228.1,278.1,228.1z"/>
				</g>
				<g>
					<path class="st2" d="M271.3,247.7c1.4-8.4,2.2-16.9,5.3-25.2c-0.5,0.1-1.1,0.2-1.6,0.4c-0.4,0.1-0.8,0.4-0.9,0.8
						c-2.3,7.5-3.1,15.1-4.6,22.6c-0.1,0.5,0.2,1.1,0.8,1.2C270.6,247.5,271,247.6,271.3,247.7z"/>
				</g>
			</g>
			<g>
				<g>
					<path class="st1" d="M286.9,241.6c0.2-0.4,0.3-0.8,0.5-1.3c0.2-0.5,0-1.1-0.5-1.3c0,0,0,0,0,0c-0.5-0.2-0.7-0.8-0.5-1.3
						c0.2-0.5,0.4-1.1,0.5-1.6c0.2-0.5,0.7-0.9,1.2-0.8l0,0c0.5,0.1,1.1-0.2,1.2-0.8c0.3-1.1,0.6-2.1,0.8-3.2
						c0.1-0.6-0.2-1.1-0.7-1.4l0,0c-0.5-0.2-0.9-0.8-0.8-1.4c0.2-1.4,0.4-2.8,0.5-4.2c0-0.7,0.8-1,1.6-0.6c1.2,0.7,2.3,1.4,3.4,2.1
						c0.4,0.2,0.6,0.6,0.6,1c-0.3,7.8-2.1,15.3-3.2,22.8c-0.1,0.5-0.6,0.9-1.2,0.9c-3.2-0.1-6.6-0.2-10.2-0.5c1.5-2.3,2.9-4.7,4-7.2
						c0.2-0.5,0.8-0.8,1.4-0.8c0,0,0,0,0,0C286.1,242.5,286.7,242.2,286.9,241.6z"/>
				</g>
				<g>
					<path class="st3" d="M289.2,250.7c-2.9-0.1-5.9-0.2-9.1-0.4c1.5-2.3,2.8-4.6,4-7C287.4,244.3,289.4,247.4,289.2,250.7z"/>
				</g>
				<g>
					<path class="st2" d="M289.3,230L289.3,230c-0.5-0.2-0.9-0.8-0.8-1.4c0.2-1.4,0.4-2.8,0.5-4.2c0-0.7,0.8-1,1.6-0.6
						c-0.5,0-0.9,0.3-0.9,0.8c-0.1,1.4-0.3,2.8-0.5,4.2c-0.1,0.6,0.2,1.2,0.8,1.4c0.5,0.2,0.9,0.8,0.7,1.4c-0.2,1.1-0.5,2.1-0.8,3.2
						c-0.2,0.6-0.7,0.9-1.2,0.8c-0.5-0.1-1.1,0.2-1.2,0.8c-0.2,0.5-0.3,1.1-0.5,1.6c-0.2,0.5,0,1.1,0.5,1.3c0,0,0,0,0,0
						c0.5,0.2,0.7,0.8,0.5,1.3c-0.2,0.4-0.3,0.8-0.5,1.3c-0.2,0.5-0.8,0.9-1.3,0.8c0,0,0,0,0,0c-0.5-0.1-1.1,0.2-1.4,0.8
						c-1.1,2.4-2.4,4.8-3.9,7.1c-0.2,0-0.5,0-0.7,0c1.5-2.3,2.9-4.7,4-7.2c0.2-0.5,0.8-0.8,1.4-0.8c0,0,0,0,0,0
						c0.5,0.1,1.1-0.2,1.3-0.8c0.2-0.4,0.3-0.8,0.5-1.3c0.2-0.5,0-1.1-0.5-1.3c0,0,0,0,0,0c-0.5-0.2-0.7-0.8-0.5-1.3
						c0.2-0.5,0.4-1.1,0.5-1.6c0.2-0.5,0.7-0.9,1.2-0.8l0,0c0.5,0.1,1.1-0.2,1.2-0.8c0.3-1.1,0.6-2.1,0.8-3.2
						C290.2,230.8,289.8,230.2,289.3,230z"/>
				</g>
				<g>
					<path class="st2" d="M289.3,250.7c1.5-8.4,3.6-16.7,3.3-25.6c0.5,0.3,0.9,0.6,1.4,0.9c0.4,0.2,0.6,0.6,0.6,1
						c-0.3,7.8-2.1,15.3-3.2,22.8c-0.1,0.5-0.6,0.9-1.2,0.9C289.9,250.8,289.6,250.8,289.3,250.7z"/>
				</g>
			</g>
			<path class="st1" d="M287.8,251.6c-0.7,4.2-4.7,7.1-9,6.4c-4.2-0.7-7.1-4.7-6.4-9c0.7-4.2,4.7-7.1,9-6.4
				C285.6,243.4,288.5,247.4,287.8,251.6z"/>
			<path class="st3" d="M285.9,245.1c0.8,1.5,1.1,3.2,0.8,5c-0.7,4.2-4.7,7.1-9,6.4c-1.8-0.3-3.3-1.2-4.5-2.5c1.1,2,3.1,3.5,5.5,4
				c4.2,0.7,8.3-2.1,9-6.4C288.2,249.2,287.4,246.8,285.9,245.1z"/>
			<path class="st2" d="M273.1,250c0.7-4.2,4.7-7.1,9-6.4c1.9,0.3,3.5,1.3,4.7,2.7c-1.1-1.9-3-3.3-5.4-3.7c-4.2-0.7-8.3,2.1-9,6.4
				c-0.4,2.3,0.3,4.6,1.7,6.3C273.2,253.7,272.8,251.9,273.1,250z"/>
			<path class="st3" d="M281.4,248c-1.6-0.5-3.3,0.5-3.8,2.1c-0.5,1.6,0.5,3.3,2.1,3.8c1.6,0.5,3.3-0.5,3.8-2.1
				C283.9,250.2,283,248.5,281.4,248z"/>
			<path class="st2" d="M283.1,250.8c-0.3,1.7-1.9,2.8-3.5,2.5s-2.8-1.9-2.5-3.5c0.3-1.7,1.9-2.8,3.5-2.5
				C282.3,247.6,283.4,249.2,283.1,250.8z"/>
		</g>
		<g>
			<g>
				<polygon class="st1" points="298.5,381.8 296.4,381.6 297,376.2 327,379.1 326.8,381.2 298.8,378.5 				"/>
			</g>
			<polygon class="st3" points="326,379 325.9,380.2 298,377.4 297.7,380.7 296.5,380.6 296.4,381.6 298.5,381.8 298.8,378.5 
				326.8,381.2 327,379.1 			"/>
			<path class="st4" d="M347.5,342.7c-11.4-1.1-21.6,7.3-22.7,18.7l-1.7,17.7c-0.2,1.7,1.1,3.2,2.7,3.3l29.7,2.9
				c4.8,0.5,9.1-3.1,9.6-7.9l1.2-12C367.3,354,359,343.8,347.5,342.7z"/>
			<path class="st5" d="M359.8,348.4c2.4,3.8,3.6,8.4,3.2,13.2l-1.2,12c-0.5,4.8-4.8,8.4-9.6,7.9l-29.1-2.8l-0.1,0.5
				c-0.2,1.7,1.1,3.2,2.7,3.3l29.7,2.9c4.8,0.5,9.1-3.1,9.6-7.9l1.2-12C366.9,358.8,364.3,352.6,359.8,348.4z"/>
			
				<ellipse transform="matrix(0.3376 -0.9413 0.9413 0.3376 -113.5323 567.0388)" class="st5" cx="346.1" cy="364.2" rx="11.7" ry="11.7"/>
			
				<ellipse transform="matrix(0.8336 -0.5524 0.5524 0.8336 -142.9819 250.9378)" class="st6" cx="345" cy="362.8" rx="11.7" ry="11.7"/>
			
				<ellipse transform="matrix(0.7622 -0.6474 0.6474 0.7622 -153.0989 310.0909)" class="st7" cx="345.5" cy="363.4" rx="11.7" ry="11.7"/>
			<path class="st8" d="M350.8,363.3c-0.3,3.2-3.2,5.6-6.5,5.3c-3.2-0.3-5.6-3.2-5.3-6.5c0.3-3.2,3.2-5.6,6.5-5.3
				C348.7,357.1,351.1,360,350.8,363.3z"/>
			<path class="st4" d="M351.2,364c-0.3,3.1-3.1,5.4-6.3,5.1c-3.1-0.3-5.4-3.1-5.1-6.3c0.3-3.1,3.1-5.4,6.3-5.1
				C349.2,358,351.5,360.8,351.2,364z"/>
			<path class="st6" d="M349.6,359.5c0.8,1.1,1.2,2.4,1,3.8c-0.3,3.1-3.1,5.4-6.3,5.1c-1.4-0.1-2.6-0.8-3.6-1.8
				c0.9,1.3,2.4,2.3,4.1,2.4c3.1,0.3,5.9-2,6.3-5.1C351.4,362.3,350.7,360.6,349.6,359.5z"/>
			<path class="st5" d="M340.7,364c0.3-3.1,3.1-5.4,6.3-5.1c1.3,0.1,2.5,0.7,3.4,1.6c-0.9-1.4-2.4-2.5-4.3-2.7
				c-3.1-0.3-5.9,2-6.3,5.1c-0.2,1.8,0.5,3.5,1.8,4.7C340.9,366.5,340.6,365.3,340.7,364z"/>
			<path class="st6" d="M324.8,381.2l1.7-17.7c1.1-11.4,11.3-19.8,22.7-18.7c5.2,0.5,9.8,2.9,13.2,6.5c-3.4-4.7-8.7-8-14.9-8.6
				c-11.4-1.1-21.6,7.3-22.7,18.7l-1.7,17.7c-0.1,1.3,0.6,2.5,1.8,3C324.8,381.8,324.7,381.5,324.8,381.2z"/>
		</g>
	</g>
</g>
<g id="DESIGNED_BY_FREEPIK">
</g>
</svg>
